<svg version="1.1" viewBox="0 0 512 615" xmlns="http://www.w3.org/2000/svg"><g transform="translate(2.437e-5 1.447e-5)" fill="#fff"><path d="m512 12.65c-14.45 0-21.78-2.591-28.88-5.096-7.206-2.545-14.01-4.948-28.01-4.948s-20.81 2.403-28.01 4.948c-7.097 2.506-14.43 5.096-28.88 5.096s-21.78-2.591-28.88-5.096c-7.206-2.545-14.01-4.948-28.01-4.948s-20.8 2.403-28.01 4.948c-7.096 2.506-14.43 5.096-28.88 5.096s-21.78-2.591-28.88-5.096c-7.205-2.545-14.01-4.948-28.01-4.948s-20.8 2.403-28.01 4.948c-7.095 2.506-14.43 5.096-28.88 5.096s-21.78-2.591-28.88-5.096c-7.205-2.545-14.01-4.948-28.01-4.948s-20.81 2.403-28.01 4.948c-7.096 2.506-14.43 5.096-28.88 5.096s-21.78-2.591-28.88-5.096c-7.205-2.545-14.01-4.948-28.01-4.948v-2.605c14.45 0 21.78 2.591 28.88 5.096 7.205 2.545 14.01 4.948 28.01 4.948s20.8-2.403 28.01-4.948c7.096-2.506 14.43-5.096 28.88-5.096s21.78 2.591 28.88 5.096c7.206 2.545 14.01 4.948 28.01 4.948s20.8-2.403 28.01-4.948c7.094-2.506 14.43-5.096 28.88-5.096 14.44 0 21.78 2.591 28.88 5.096 7.205 2.545 14.01 4.948 28.01 4.948s20.8-2.403 28.01-4.948c7.095-2.506 14.43-5.096 28.88-5.096s21.78 2.591 28.88 5.096c7.205 2.545 14.01 4.948 28.01 4.948s20.81-2.403 28.01-4.948c7.096-2.506 14.43-5.096 28.88-5.096s21.79 2.591 28.88 5.096c7.207 2.546 14.01 4.948 28.01 4.948v2.605"/><path d="m512 34c-14.45 0-21.78-2.591-28.88-5.096-7.206-2.545-14.01-4.948-28.01-4.948s-20.81 2.403-28.01 4.948c-7.097 2.506-14.43 5.096-28.88 5.096s-21.78-2.591-28.88-5.096c-7.206-2.545-14.01-4.948-28.01-4.948s-20.8 2.403-28.01 4.948c-7.096 2.506-14.43 5.096-28.88 5.096s-21.78-2.591-28.88-5.096c-7.205-2.545-14.01-4.948-28.01-4.948s-20.8 2.403-28.01 4.948c-7.095 2.506-14.43 5.096-28.88 5.096s-21.78-2.591-28.88-5.096c-7.205-2.545-14.01-4.948-28.01-4.948s-20.81 2.403-28.01 4.948c-7.096 2.506-14.43 5.096-28.88 5.096s-21.78-2.591-28.88-5.096c-7.205-2.545-14.01-4.948-28.01-4.948v-2.605c14.45 0 21.78 2.591 28.88 5.097 7.205 2.545 14.01 4.948 28.01 4.948s20.8-2.403 28.01-4.948c7.096-2.506 14.43-5.097 28.88-5.097s21.78 2.591 28.88 5.097c7.206 2.545 14.01 4.948 28.01 4.948s20.8-2.403 28.01-4.948c7.094-2.506 14.43-5.097 28.88-5.097 14.44 0 21.78 2.591 28.88 5.097 7.205 2.545 14.01 4.948 28.01 4.948s20.8-2.403 28.01-4.948c7.095-2.506 14.43-5.097 28.88-5.097s21.78 2.591 28.88 5.097c7.205 2.545 14.01 4.948 28.01 4.948s20.81-2.403 28.01-4.948c7.096-2.506 14.43-5.097 28.88-5.097s21.79 2.591 28.88 5.097c7.207 2.545 14.01 4.948 28.01 4.948v2.605"/><path d="m512 55.34c-14.45 0-21.78-2.592-28.88-5.096-7.206-2.546-14.01-4.948-28.01-4.948s-20.81 2.402-28.01 4.947c-7.097 2.506-14.43 5.098-28.88 5.098s-21.78-2.592-28.88-5.096c-7.206-2.546-14.01-4.948-28.01-4.948s-20.8 2.402-28.01 4.947c-7.096 2.506-14.43 5.098-28.88 5.098s-21.78-2.592-28.88-5.098c-7.205-2.545-14.01-4.947-28.01-4.947s-20.8 2.402-28.01 4.947c-7.095 2.506-14.43 5.098-28.88 5.098s-21.78-2.592-28.88-5.096c-7.205-2.546-14.01-4.948-28.01-4.948s-20.81 2.402-28.01 4.948c-7.096 2.505-14.43 5.096-28.88 5.096s-21.78-2.592-28.88-5.098c-7.205-2.545-14.01-4.947-28.01-4.947v-2.605c14.45 0 21.78 2.591 28.88 5.095 7.205 2.546 14.01 4.949 28.01 4.949s20.8-2.403 28.01-4.948c7.096-2.506 14.43-5.096 28.88-5.096s21.78 2.591 28.88 5.095c7.206 2.546 14.01 4.949 28.01 4.949s20.8-2.403 28.01-4.949c7.094-2.505 14.43-5.095 28.88-5.095 14.44 0 21.78 2.591 28.88 5.095 7.205 2.546 14.01 4.949 28.01 4.949s20.8-2.403 28.01-4.949c7.095-2.505 14.43-5.095 28.88-5.095s21.78 2.591 28.88 5.095c7.205 2.546 14.01 4.949 28.01 4.949s20.81-2.403 28.01-4.949c7.096-2.505 14.43-5.095 28.88-5.095s21.79 2.591 28.88 5.096c7.207 2.545 14.01 4.948 28.01 4.948v2.605"/><path d="m512 76.69c-14.45 0-21.78-2.592-28.88-5.098-7.206-2.544-14.01-4.948-28.01-4.948s-20.81 2.403-28.01 4.948c-7.097 2.506-14.43 5.098-28.88 5.098s-21.78-2.592-28.88-5.098c-7.206-2.544-14.01-4.948-28.01-4.948s-20.8 2.403-28.01 4.948c-7.096 2.506-14.43 5.098-28.88 5.098s-21.78-2.592-28.88-5.098c-7.205-2.544-14.01-4.948-28.01-4.948s-20.8 2.404-28.01 4.948c-7.095 2.506-14.43 5.098-28.88 5.098s-21.78-2.592-28.88-5.098c-7.205-2.544-14.01-4.948-28.01-4.948s-20.81 2.404-28.01 4.948c-7.096 2.506-14.43 5.098-28.88 5.098s-21.78-2.592-28.88-5.098c-7.205-2.544-14.01-4.948-28.01-4.948v-2.605c14.45 0 21.78 2.591 28.88 5.096 7.205 2.545 14.01 4.949 28.01 4.949s20.8-2.404 28.01-4.949c7.096-2.506 14.43-5.096 28.88-5.096s21.78 2.591 28.88 5.096c7.206 2.545 14.01 4.949 28.01 4.949s20.8-2.404 28.01-4.949c7.094-2.506 14.43-5.096 28.88-5.096 14.44 0 21.78 2.591 28.88 5.096 7.205 2.545 14.01 4.949 28.01 4.949s20.8-2.404 28.01-4.949c7.095-2.506 14.43-5.096 28.88-5.096s21.78 2.591 28.88 5.096c7.205 2.545 14.01 4.949 28.01 4.949s20.81-2.404 28.01-4.949c7.096-2.506 14.43-5.096 28.88-5.096s21.79 2.591 28.88 5.096c7.207 2.546 14.01 4.949 28.01 4.949v2.605"/><path d="m512 98.03c-14.45 0-21.78-2.591-28.88-5.096-7.206-2.545-14.01-4.948-28.01-4.948s-20.81 2.403-28.01 4.948c-7.097 2.506-14.43 5.096-28.88 5.096s-21.78-2.591-28.88-5.096c-7.206-2.545-14.01-4.948-28.01-4.948s-20.8 2.403-28.01 4.948c-7.096 2.506-14.43 5.096-28.88 5.096s-21.78-2.591-28.88-5.096c-7.205-2.545-14.01-4.948-28.01-4.948s-20.8 2.403-28.01 4.948c-7.095 2.506-14.43 5.096-28.88 5.096s-21.78-2.591-28.88-5.096c-7.205-2.545-14.01-4.948-28.01-4.948s-20.81 2.403-28.01 4.948c-7.096 2.506-14.43 5.096-28.88 5.096s-21.78-2.591-28.88-5.096c-7.205-2.545-14.01-4.948-28.01-4.948v-2.605c14.45 0 21.78 2.591 28.88 5.096 7.205 2.545 14.01 4.948 28.01 4.948s20.8-2.403 28.01-4.948c7.096-2.506 14.43-5.096 28.88-5.096s21.78 2.591 28.88 5.096c7.206 2.545 14.01 4.948 28.01 4.948s20.8-2.403 28.01-4.948c7.094-2.506 14.43-5.096 28.88-5.096 14.44 0 21.78 2.591 28.88 5.096 7.205 2.545 14.01 4.948 28.01 4.948s20.8-2.403 28.01-4.948c7.095-2.506 14.43-5.096 28.88-5.096s21.78 2.591 28.88 5.096c7.205 2.545 14.01 4.948 28.01 4.948s20.81-2.403 28.01-4.948c7.096-2.506 14.43-5.096 28.88-5.096s21.79 2.591 28.88 5.096c7.207 2.545 14.01 4.948 28.01 4.948v2.605"/><path d="m512 119.4c-14.45 0-21.78-2.592-28.88-5.098-7.206-2.544-14.01-4.948-28.01-4.948s-20.81 2.404-28.01 4.948c-7.097 2.506-14.43 5.098-28.88 5.098s-21.78-2.592-28.88-5.098c-7.206-2.544-14.01-4.948-28.01-4.948s-20.8 2.404-28.01 4.948c-7.096 2.506-14.43 5.098-28.88 5.098s-21.78-2.592-28.88-5.098c-7.205-2.544-14.01-4.948-28.01-4.948s-20.8 2.404-28.01 4.948c-7.095 2.506-14.43 5.098-28.88 5.098s-21.78-2.592-28.88-5.098c-7.205-2.544-14.01-4.948-28.01-4.948s-20.81 2.404-28.01 4.948c-7.096 2.506-14.43 5.098-28.88 5.098s-21.78-2.592-28.88-5.098c-7.205-2.544-14.01-4.948-28.01-4.948v-2.605c14.45 0 21.78 2.592 28.88 5.098 7.205 2.544 14.01 4.948 28.01 4.948s20.8-2.404 28.01-4.948c7.096-2.506 14.43-5.098 28.88-5.098s21.78 2.592 28.88 5.098c7.206 2.544 14.01 4.948 28.01 4.948s20.8-2.404 28.01-4.948c7.094-2.506 14.43-5.098 28.88-5.098 14.44 0 21.78 2.592 28.88 5.098 7.205 2.544 14.01 4.948 28.01 4.948s20.8-2.404 28.01-4.948c7.095-2.506 14.43-5.098 28.88-5.098s21.78 2.592 28.88 5.098c7.205 2.544 14.01 4.948 28.01 4.948s20.81-2.404 28.01-4.948c7.096-2.506 14.43-5.098 28.88-5.098s21.79 2.592 28.88 5.098c7.207 2.545 14.01 4.948 28.01 4.948v2.605"/><path d="m512 140.7c-14.45 0-21.78-2.591-28.88-5.096-7.206-2.545-14.01-4.948-28.01-4.948s-20.81 2.403-28.01 4.948c-7.097 2.506-14.43 5.096-28.88 5.096s-21.78-2.591-28.88-5.096c-7.206-2.545-14.01-4.948-28.01-4.948s-20.8 2.403-28.01 4.948c-7.096 2.506-14.43 5.096-28.88 5.096s-21.78-2.591-28.88-5.096c-7.205-2.545-14.01-4.948-28.01-4.948s-20.8 2.403-28.01 4.948c-7.095 2.506-14.43 5.096-28.88 5.096s-21.78-2.591-28.88-5.096c-7.205-2.545-14.01-4.948-28.01-4.948s-20.81 2.403-28.01 4.948c-7.096 2.506-14.43 5.096-28.88 5.096s-21.78-2.591-28.88-5.096c-7.205-2.545-14.01-4.948-28.01-4.948v-2.605c14.45 0 21.78 2.591 28.88 5.097 7.205 2.545 14.01 4.948 28.01 4.948s20.8-2.403 28.01-4.948c7.096-2.506 14.43-5.097 28.88-5.097s21.78 2.591 28.88 5.097c7.206 2.545 14.01 4.948 28.01 4.948s20.8-2.403 28.01-4.948c7.094-2.506 14.43-5.097 28.88-5.097 14.44 0 21.78 2.591 28.88 5.097 7.205 2.545 14.01 4.948 28.01 4.948s20.8-2.403 28.01-4.948c7.095-2.506 14.43-5.097 28.88-5.097s21.78 2.591 28.88 5.097c7.205 2.545 14.01 4.948 28.01 4.948s20.81-2.403 28.01-4.948c7.096-2.506 14.43-5.097 28.88-5.097s21.79 2.591 28.88 5.097c7.207 2.545 14.01 4.948 28.01 4.948v2.605"/><path d="m512 162.1c-14.45 0-21.78-2.591-28.88-5.096-7.206-2.545-14.01-4.949-28.01-4.949s-20.81 2.403-28.01 4.949c-7.097 2.506-14.43 5.096-28.88 5.096s-21.78-2.591-28.88-5.096c-7.206-2.545-14.01-4.949-28.01-4.949s-20.8 2.403-28.01 4.949c-7.096 2.506-14.43 5.096-28.88 5.096s-21.78-2.591-28.88-5.096c-7.205-2.545-14.01-4.949-28.01-4.949s-20.8 2.404-28.01 4.949c-7.095 2.506-14.43 5.096-28.88 5.096s-21.78-2.591-28.88-5.096c-7.205-2.545-14.01-4.949-28.01-4.949s-20.81 2.404-28.01 4.949c-7.096 2.506-14.43 5.096-28.88 5.096s-21.78-2.591-28.88-5.096c-7.205-2.545-14.01-4.949-28.01-4.949v-2.605c14.45 0 21.78 2.592 28.88 5.098 7.205 2.544 14.01 4.948 28.01 4.948s20.8-2.404 28.01-4.948c7.096-2.506 14.43-5.098 28.88-5.098s21.78 2.592 28.88 5.098c7.206 2.544 14.01 4.948 28.01 4.948s20.8-2.404 28.01-4.948c7.094-2.506 14.43-5.098 28.88-5.098 14.44 0 21.78 2.592 28.88 5.098 7.205 2.544 14.01 4.948 28.01 4.948s20.8-2.404 28.01-4.948c7.095-2.506 14.43-5.098 28.88-5.098s21.78 2.592 28.88 5.098c7.205 2.544 14.01 4.948 28.01 4.948s20.81-2.404 28.01-4.948c7.096-2.506 14.43-5.098 28.88-5.098s21.79 2.592 28.88 5.098c7.207 2.545 14.01 4.948 28.01 4.948v2.605"/><path d="m512 183.6c-14.45 0-21.78-2.591-28.88-5.096-7.206-2.545-14.01-4.948-28.01-4.948s-20.81 2.403-28.01 4.948c-7.097 2.506-14.43 5.096-28.88 5.096s-21.78-2.591-28.88-5.096c-7.206-2.545-14.01-4.948-28.01-4.948s-20.8 2.403-28.01 4.948c-7.096 2.506-14.43 5.096-28.88 5.096s-21.78-2.591-28.88-5.096c-7.205-2.545-14.01-4.948-28.01-4.948s-20.8 2.403-28.01 4.948c-7.095 2.506-14.43 5.096-28.88 5.096s-21.78-2.591-28.88-5.096c-7.205-2.545-14.01-4.948-28.01-4.948s-20.81 2.403-28.01 4.948c-7.096 2.506-14.43 5.096-28.88 5.096s-21.78-2.591-28.88-5.096c-7.205-2.545-14.01-4.948-28.01-4.948v-2.605c14.45 0 21.78 2.591 28.88 5.096 7.205 2.545 14.01 4.948 28.01 4.948s20.8-2.403 28.01-4.948c7.096-2.506 14.43-5.096 28.88-5.096s21.78 2.591 28.88 5.096c7.206 2.545 14.01 4.948 28.01 4.948s20.8-2.403 28.01-4.948c7.094-2.506 14.43-5.096 28.88-5.096 14.44 0 21.78 2.591 28.88 5.096 7.205 2.545 14.01 4.948 28.01 4.948s20.8-2.403 28.01-4.948c7.095-2.506 14.43-5.096 28.88-5.096s21.78 2.591 28.88 5.096c7.205 2.545 14.01 4.948 28.01 4.948s20.81-2.403 28.01-4.948c7.096-2.506 14.43-5.096 28.88-5.096s21.79 2.591 28.88 5.096c7.207 2.545 14.01 4.948 28.01 4.948v2.605"/><path d="m512 205c-14.45 0-21.78-2.591-28.88-5.096-7.206-2.545-14.01-4.948-28.01-4.948s-20.81 2.403-28.01 4.948c-7.097 2.506-14.43 5.096-28.88 5.096s-21.78-2.591-28.88-5.096c-7.206-2.545-14.01-4.948-28.01-4.948s-20.8 2.403-28.01 4.948c-7.096 2.506-14.43 5.096-28.88 5.096s-21.78-2.591-28.88-5.096c-7.205-2.545-14.01-4.948-28.01-4.948s-20.8 2.403-28.01 4.948c-7.095 2.506-14.43 5.096-28.88 5.096s-21.78-2.591-28.88-5.096c-7.205-2.545-14.01-4.948-28.01-4.948s-20.81 2.403-28.01 4.948c-7.096 2.506-14.43 5.096-28.88 5.096s-21.78-2.591-28.88-5.096c-7.205-2.545-14.01-4.948-28.01-4.948v-2.605c14.45 0 21.78 2.591 28.88 5.096 7.205 2.545 14.01 4.948 28.01 4.948s20.8-2.403 28.01-4.948c7.096-2.506 14.43-5.096 28.88-5.096s21.78 2.591 28.88 5.096c7.206 2.545 14.01 4.948 28.01 4.948s20.8-2.403 28.01-4.948c7.094-2.506 14.43-5.096 28.88-5.096 14.44 0 21.78 2.591 28.88 5.096 7.205 2.545 14.01 4.948 28.01 4.948s20.8-2.403 28.01-4.948c7.095-2.506 14.43-5.096 28.88-5.096s21.78 2.591 28.88 5.096c7.205 2.545 14.01 4.948 28.01 4.948s20.81-2.403 28.01-4.948c7.096-2.506 14.43-5.096 28.88-5.096s21.79 2.591 28.88 5.096c7.207 2.545 14.01 4.948 28.01 4.948v2.605"/><path d="m512 226.5c-14.45 0-21.78-2.591-28.88-5.096-7.206-2.545-14.01-4.948-28.01-4.948s-20.81 2.403-28.01 4.948c-7.097 2.506-14.43 5.096-28.88 5.096s-21.78-2.591-28.88-5.096c-7.206-2.545-14.01-4.948-28.01-4.948s-20.8 2.403-28.01 4.948c-7.096 2.506-14.43 5.096-28.88 5.096s-21.78-2.591-28.88-5.096c-7.205-2.545-14.01-4.948-28.01-4.948s-20.8 2.403-28.01 4.948c-7.095 2.506-14.43 5.096-28.88 5.096s-21.78-2.591-28.88-5.096c-7.205-2.545-14.01-4.948-28.01-4.948s-20.81 2.403-28.01 4.948c-7.096 2.506-14.43 5.096-28.88 5.096s-21.78-2.591-28.88-5.096c-7.205-2.545-14.01-4.948-28.01-4.948v-2.605c14.45 0 21.78 2.591 28.88 5.096 7.205 2.545 14.01 4.948 28.01 4.948s20.8-2.403 28.01-4.948c7.096-2.506 14.43-5.096 28.88-5.096s21.78 2.591 28.88 5.096c7.206 2.545 14.01 4.948 28.01 4.948s20.8-2.403 28.01-4.948c7.094-2.506 14.43-5.096 28.88-5.096 14.44 0 21.78 2.591 28.88 5.096 7.205 2.545 14.01 4.948 28.01 4.948s20.8-2.403 28.01-4.948c7.095-2.506 14.43-5.096 28.88-5.096s21.78 2.591 28.88 5.096c7.205 2.545 14.01 4.948 28.01 4.948s20.81-2.403 28.01-4.948c7.096-2.506 14.43-5.096 28.88-5.096s21.79 2.591 28.88 5.096c7.207 2.545 14.01 4.948 28.01 4.948v2.605"/><path d="m512 248c-14.45 0-21.78-2.591-28.88-5.097-7.206-2.545-14.01-4.948-28.01-4.948s-20.81 2.403-28.01 4.948c-7.097 2.506-14.43 5.097-28.88 5.097s-21.78-2.591-28.88-5.097c-7.206-2.545-14.01-4.948-28.01-4.948s-20.8 2.403-28.01 4.948c-7.096 2.506-14.43 5.097-28.88 5.097s-21.78-2.591-28.88-5.097c-7.205-2.545-14.01-4.948-28.01-4.948s-20.8 2.403-28.01 4.948c-7.095 2.506-14.43 5.097-28.88 5.097s-21.78-2.591-28.88-5.097c-7.205-2.545-14.01-4.948-28.01-4.948s-20.81 2.403-28.01 4.948c-7.096 2.506-14.43 5.097-28.88 5.097s-21.78-2.591-28.88-5.097c-7.205-2.545-14.01-4.948-28.01-4.948v-2.605c14.45 0 21.78 2.591 28.88 5.096 7.205 2.545 14.01 4.948 28.01 4.948s20.8-2.403 28.01-4.948c7.096-2.506 14.43-5.096 28.88-5.096s21.78 2.591 28.88 5.096c7.206 2.545 14.01 4.948 28.01 4.948s20.8-2.403 28.01-4.948c7.094-2.506 14.43-5.096 28.88-5.096 14.44 0 21.78 2.591 28.88 5.096 7.205 2.545 14.01 4.948 28.01 4.948s20.8-2.403 28.01-4.948c7.095-2.506 14.43-5.096 28.88-5.096s21.78 2.591 28.88 5.096c7.205 2.545 14.01 4.948 28.01 4.948s20.81-2.403 28.01-4.948c7.096-2.506 14.43-5.096 28.88-5.096s21.79 2.591 28.88 5.096c7.207 2.545 14.01 4.948 28.01 4.948v2.605"/><path d="m512 269.2c-14.39 0-21.7-2.581-28.77-5.079-7.234-2.553-14.07-4.966-28.12-4.966-14.06 0-20.89 2.411-28.12 4.966-7.069 2.498-14.38 5.079-28.77 5.079s-21.7-2.581-28.77-5.079c-7.233-2.554-14.06-4.966-28.12-4.966-14.05 0-20.89 2.411-28.12 4.966-7.07 2.498-14.38 5.079-28.77 5.079s-21.7-2.581-28.77-5.079c-7.233-2.554-14.06-4.966-28.12-4.966-14.05 0-20.88 2.411-28.12 4.966-7.069 2.498-14.38 5.079-28.77 5.079s-21.7-2.581-28.77-5.079c-7.232-2.554-14.06-4.966-28.12-4.966-14.05 0-20.89 2.411-28.12 4.966-7.07 2.498-14.38 5.079-28.77 5.079s-21.7-2.581-28.77-5.079c-7.232-2.554-14.06-4.966-28.12-4.966v-1.954c14.39 0 21.7 2.581 28.77 5.078 7.232 2.554 14.06 4.967 28.12 4.967 14.05 0 20.89-2.413 28.12-4.967 7.07-2.496 14.38-5.078 28.77-5.078s21.7 2.581 28.77 5.078c7.232 2.554 14.06 4.967 28.12 4.967 14.05 0 20.88-2.413 28.12-4.967 7.071-2.496 14.38-5.078 28.77-5.078s21.7 2.581 28.77 5.078c7.232 2.554 14.06 4.967 28.12 4.967s20.89-2.413 28.12-4.967c7.069-2.496 14.38-5.078 28.77-5.078s21.7 2.581 28.77 5.078c7.233 2.554 14.06 4.967 28.12 4.967s20.89-2.413 28.12-4.967c7.069-2.496 14.38-5.078 28.77-5.078s21.7 2.581 28.77 5.078c7.233 2.554 14.07 4.967 28.12 4.967v1.954"/><path d="m512 290.7c-14.39 0-21.7-2.581-28.77-5.078-7.234-2.554-14.07-4.967-28.12-4.967-14.06 0-20.89 2.413-28.12 4.967-7.069 2.496-14.38 5.078-28.77 5.078s-21.7-2.581-28.77-5.078c-7.233-2.554-14.06-4.967-28.12-4.967-14.05 0-20.89 2.413-28.12 4.967-7.07 2.496-14.38 5.078-28.77 5.078s-21.7-2.581-28.77-5.078c-7.233-2.554-14.06-4.967-28.12-4.967-14.05 0-20.88 2.413-28.12 4.967-7.069 2.496-14.38 5.078-28.77 5.078s-21.7-2.581-28.77-5.078c-7.232-2.554-14.06-4.967-28.12-4.967-14.05 0-20.89 2.413-28.12 4.967-7.07 2.496-14.38 5.078-28.77 5.078s-21.7-2.581-28.77-5.078c-7.232-2.554-14.06-4.967-28.12-4.967v-1.955c14.39 0 21.7 2.582 28.77 5.079 7.232 2.554 14.06 4.967 28.12 4.967 14.05 0 20.89-2.413 28.12-4.967 7.07-2.496 14.38-5.079 28.77-5.079s21.7 2.582 28.77 5.079c7.232 2.554 14.06 4.967 28.12 4.967 14.05 0 20.88-2.413 28.12-4.967 7.071-2.496 14.38-5.079 28.77-5.079s21.7 2.582 28.77 5.079c7.232 2.554 14.06 4.967 28.12 4.967s20.89-2.413 28.12-4.967c7.069-2.496 14.38-5.079 28.77-5.079s21.7 2.582 28.77 5.079c7.233 2.554 14.06 4.967 28.12 4.967s20.89-2.413 28.12-4.967c7.069-2.496 14.38-5.079 28.77-5.079s21.7 2.582 28.77 5.079c7.233 2.554 14.07 4.967 28.12 4.967v1.954"/><path d="m512 312.2c-14.39 0-21.7-2.581-28.77-5.078-7.234-2.554-14.07-4.967-28.12-4.967-14.06 0-20.89 2.413-28.12 4.967-7.069 2.496-14.38 5.078-28.77 5.078s-21.7-2.581-28.77-5.078c-7.233-2.554-14.06-4.967-28.12-4.967-14.05 0-20.89 2.413-28.12 4.967-7.07 2.496-14.38 5.078-28.77 5.078s-21.7-2.581-28.77-5.078c-7.233-2.554-14.06-4.967-28.12-4.967-14.05 0-20.88 2.413-28.12 4.967-7.069 2.496-14.38 5.078-28.77 5.078s-21.7-2.581-28.77-5.078c-7.232-2.554-14.06-4.967-28.12-4.967-14.05 0-20.89 2.413-28.12 4.967-7.07 2.496-14.38 5.078-28.77 5.078s-21.7-2.581-28.77-5.078c-7.232-2.554-14.06-4.967-28.12-4.967v-1.954c14.39 0 21.7 2.581 28.77 5.078 7.232 2.554 14.06 4.967 28.12 4.967 14.05 0 20.89-2.413 28.12-4.967 7.07-2.496 14.38-5.078 28.77-5.078s21.7 2.581 28.77 5.078c7.232 2.554 14.06 4.967 28.12 4.967 14.05 0 20.88-2.413 28.12-4.967 7.071-2.496 14.38-5.078 28.77-5.078s21.7 2.581 28.77 5.078c7.232 2.554 14.06 4.967 28.12 4.967s20.89-2.413 28.12-4.967c7.069-2.496 14.38-5.078 28.77-5.078s21.7 2.581 28.77 5.078c7.233 2.554 14.06 4.967 28.12 4.967s20.89-2.413 28.12-4.967c7.069-2.496 14.38-5.078 28.77-5.078s21.7 2.581 28.77 5.078c7.233 2.554 14.07 4.967 28.12 4.967v1.954"/><path d="m512 333.7c-14.39 0-21.7-2.58-28.77-5.076-7.234-2.554-14.07-4.967-28.12-4.967-14.06 0-20.89 2.413-28.12 4.967-7.069 2.496-14.38 5.076-28.77 5.076s-21.7-2.58-28.77-5.076c-7.233-2.554-14.06-4.967-28.12-4.967-14.05 0-20.89 2.413-28.12 4.967-7.069 2.496-14.38 5.076-28.77 5.076s-21.7-2.58-28.77-5.076c-7.233-2.554-14.06-4.967-28.12-4.967-14.05 0-20.88 2.413-28.12 4.967-7.069 2.496-14.38 5.076-28.77 5.076s-21.7-2.58-28.77-5.076c-7.232-2.554-14.06-4.967-28.12-4.967-14.05 0-20.89 2.413-28.12 4.967-7.07 2.496-14.38 5.076-28.77 5.076s-21.7-2.58-28.77-5.076c-7.232-2.554-14.06-4.967-28.12-4.967v-1.953c14.39 0 21.7 2.58 28.77 5.076 7.232 2.554 14.06 4.967 28.12 4.967 14.05 0 20.89-2.413 28.12-4.967 7.07-2.496 14.38-5.076 28.77-5.076s21.7 2.58 28.77 5.076c7.232 2.554 14.06 4.967 28.12 4.967 14.05 0 20.88-2.413 28.12-4.967 7.071-2.496 14.38-5.076 28.77-5.076s21.7 2.58 28.77 5.076c7.232 2.554 14.06 4.967 28.12 4.967s20.89-2.413 28.12-4.967c7.069-2.496 14.38-5.076 28.77-5.076s21.7 2.58 28.77 5.076c7.233 2.554 14.06 4.967 28.12 4.967s20.89-2.413 28.12-4.967c7.069-2.496 14.38-5.076 28.77-5.076s21.7 2.58 28.77 5.076c7.234 2.554 14.07 4.967 28.12 4.967v1.953"/><path d="m512 355.2c-14.39 0-21.7-2.581-28.77-5.079-7.234-2.554-14.07-4.967-28.12-4.967-14.06 0-20.89 2.413-28.12 4.967-7.069 2.498-14.38 5.079-28.77 5.079s-21.7-2.581-28.77-5.079c-7.233-2.554-14.06-4.967-28.12-4.967-14.05 0-20.89 2.413-28.12 4.967-7.07 2.498-14.38 5.079-28.77 5.079s-21.7-2.581-28.77-5.079c-7.233-2.554-14.06-4.967-28.12-4.967-14.05 0-20.88 2.413-28.12 4.967-7.069 2.498-14.38 5.079-28.77 5.079s-21.7-2.581-28.77-5.079c-7.232-2.554-14.06-4.967-28.12-4.967-14.05 0-20.89 2.413-28.12 4.967-7.07 2.498-14.38 5.079-28.77 5.079s-21.7-2.581-28.77-5.079c-7.232-2.554-14.06-4.967-28.12-4.967v-1.953c14.39 0 21.7 2.582 28.77 5.079 7.232 2.554 14.06 4.967 28.12 4.967 14.05 0 20.89-2.413 28.12-4.967 7.07-2.496 14.38-5.079 28.77-5.079s21.7 2.582 28.77 5.079c7.232 2.554 14.06 4.967 28.12 4.967 14.05 0 20.88-2.413 28.12-4.967 7.071-2.496 14.38-5.079 28.77-5.079s21.7 2.582 28.77 5.079c7.232 2.554 14.06 4.967 28.12 4.967s20.89-2.413 28.12-4.967c7.069-2.496 14.38-5.079 28.77-5.079s21.7 2.582 28.77 5.079c7.233 2.554 14.06 4.967 28.12 4.967s20.89-2.413 28.12-4.967c7.069-2.496 14.38-5.079 28.77-5.079s21.7 2.582 28.77 5.079c7.233 2.554 14.07 4.967 28.12 4.967v1.953"/><path d="m512 376.7c-14.39 0-21.7-2.582-28.77-5.079-7.234-2.554-14.07-4.967-28.12-4.967-14.06 0-20.89 2.413-28.12 4.967-7.069 2.496-14.38 5.079-28.77 5.079s-21.7-2.582-28.77-5.079c-7.233-2.554-14.06-4.967-28.12-4.967-14.05 0-20.89 2.413-28.12 4.967-7.07 2.496-14.38 5.079-28.77 5.079s-21.7-2.582-28.77-5.079c-7.233-2.554-14.06-4.967-28.12-4.967-14.05 0-20.88 2.413-28.12 4.967-7.069 2.496-14.38 5.079-28.77 5.079s-21.7-2.582-28.77-5.079c-7.232-2.554-14.06-4.967-28.12-4.967-14.05 0-20.89 2.413-28.12 4.967-7.07 2.496-14.38 5.079-28.77 5.079s-21.7-2.582-28.77-5.079c-7.232-2.554-14.06-4.967-28.12-4.967v-1.953c14.39 0 21.7 2.581 28.77 5.078 7.232 2.554 14.06 4.967 28.12 4.967 14.05 0 20.89-2.413 28.12-4.967 7.07-2.496 14.38-5.078 28.77-5.078s21.7 2.581 28.77 5.078c7.232 2.554 14.06 4.967 28.12 4.967 14.05 0 20.88-2.413 28.12-4.967 7.071-2.496 14.38-5.078 28.77-5.078s21.7 2.581 28.77 5.078c7.232 2.554 14.06 4.967 28.12 4.967s20.89-2.413 28.12-4.967c7.069-2.496 14.38-5.078 28.77-5.078s21.7 2.581 28.77 5.078c7.233 2.554 14.06 4.967 28.12 4.967s20.89-2.413 28.12-4.967c7.069-2.496 14.38-5.078 28.77-5.078s21.7 2.581 28.77 5.078c7.233 2.554 14.07 4.967 28.12 4.967v1.954"/><path d="m512 398.1c-14.39 0-21.7-2.581-28.77-5.078-7.234-2.554-14.07-4.967-28.12-4.967-14.06 0-20.89 2.413-28.12 4.967-7.069 2.496-14.38 5.078-28.77 5.078s-21.7-2.581-28.77-5.078c-7.233-2.554-14.06-4.967-28.12-4.967-14.05 0-20.89 2.413-28.12 4.967-7.07 2.496-14.38 5.078-28.77 5.078s-21.7-2.581-28.77-5.078c-7.233-2.554-14.06-4.967-28.12-4.967-14.05 0-20.88 2.413-28.12 4.967-7.069 2.496-14.38 5.078-28.77 5.078s-21.7-2.581-28.77-5.078c-7.232-2.554-14.06-4.967-28.12-4.967-14.05 0-20.89 2.413-28.12 4.967-7.07 2.496-14.38 5.078-28.77 5.078s-21.7-2.581-28.77-5.078c-7.232-2.554-14.06-4.967-28.12-4.967v-1.954c14.39 0 21.7 2.582 28.77 5.079 7.232 2.554 14.06 4.967 28.12 4.967 14.05 0 20.89-2.413 28.12-4.967 7.07-2.496 14.38-5.079 28.77-5.079s21.7 2.582 28.77 5.079c7.232 2.554 14.06 4.967 28.12 4.967 14.05 0 20.88-2.413 28.12-4.967 7.071-2.496 14.38-5.079 28.77-5.079s21.7 2.582 28.77 5.079c7.232 2.554 14.06 4.967 28.12 4.967s20.89-2.413 28.12-4.967c7.069-2.496 14.38-5.079 28.77-5.079s21.7 2.582 28.77 5.079c7.233 2.554 14.06 4.967 28.12 4.967s20.89-2.413 28.12-4.967c7.069-2.496 14.38-5.079 28.77-5.079s21.7 2.582 28.77 5.079c7.233 2.554 14.07 4.967 28.12 4.967v1.953"/><path d="m512 419.6c-14.39 0-21.7-2.582-28.77-5.079-7.234-2.554-14.07-4.967-28.12-4.967-14.06 0-20.89 2.413-28.12 4.967-7.069 2.496-14.38 5.079-28.77 5.079s-21.7-2.582-28.77-5.079c-7.233-2.554-14.06-4.967-28.12-4.967-14.05 0-20.89 2.413-28.12 4.967-7.07 2.496-14.38 5.079-28.77 5.079s-21.7-2.582-28.77-5.079c-7.233-2.554-14.06-4.967-28.12-4.967-14.05 0-20.88 2.413-28.12 4.967-7.069 2.496-14.38 5.079-28.77 5.079s-21.7-2.582-28.77-5.079c-7.232-2.554-14.06-4.967-28.12-4.967-14.05 0-20.89 2.413-28.12 4.967-7.07 2.496-14.38 5.079-28.77 5.079s-21.7-2.582-28.77-5.079c-7.232-2.554-14.06-4.967-28.12-4.967v-1.953c14.39 0 21.7 2.581 28.77 5.079 7.232 2.554 14.06 4.967 28.12 4.967 14.05 0 20.89-2.413 28.12-4.967 7.07-2.498 14.38-5.079 28.77-5.079s21.7 2.581 28.77 5.079c7.232 2.554 14.06 4.967 28.12 4.967 14.05 0 20.88-2.413 28.12-4.967 7.071-2.498 14.38-5.079 28.77-5.079s21.7 2.581 28.77 5.079c7.232 2.554 14.06 4.967 28.12 4.967s20.89-2.413 28.12-4.967c7.069-2.498 14.38-5.079 28.77-5.079s21.7 2.581 28.77 5.079c7.233 2.554 14.06 4.967 28.12 4.967s20.89-2.413 28.12-4.967c7.069-2.498 14.38-5.079 28.77-5.079s21.7 2.581 28.77 5.079c7.233 2.554 14.07 4.967 28.12 4.967v1.953"/><path d="m512 440.8c-14.33 0-21.62-2.573-28.66-5.06-6.941-2.45-14.12-4.984-28.23-4.984s-21.29 2.534-28.23 4.984c-7.045 2.487-14.33 5.06-28.67 5.06-14.33 0-21.62-2.573-28.66-5.06-6.939-2.45-14.12-4.984-28.23-4.984s-21.29 2.534-28.23 4.984c-7.042 2.487-14.33 5.06-28.66 5.06s-21.62-2.573-28.66-5.06c-6.941-2.45-14.12-4.984-28.23-4.984s-21.28 2.534-28.23 4.984c-7.043 2.487-14.33 5.06-28.66 5.06s-21.62-2.573-28.66-5.06c-6.94-2.45-14.12-4.984-28.23-4.984s-21.29 2.534-28.23 4.984c-7.044 2.487-14.33 5.06-28.66 5.06s-21.62-2.573-28.66-5.06c-6.94-2.45-14.12-4.984-28.23-4.984v-1.303c14.33 0 21.62 2.573 28.66 5.06 6.94 2.45 14.12 4.984 28.23 4.984s21.29-2.534 28.23-4.984c7.043-2.487 14.33-5.06 28.66-5.06s21.62 2.573 28.66 5.06c6.939 2.45 14.12 4.984 28.23 4.984s21.29-2.534 28.23-4.984c7.043-2.487 14.33-5.06 28.66-5.06s21.62 2.573 28.66 5.06c6.94 2.45 14.12 4.984 28.23 4.984s21.29-2.534 28.23-4.984c7.043-2.487 14.33-5.06 28.66-5.06s21.62 2.573 28.66 5.06c6.94 2.45 14.12 4.984 28.23 4.984s21.29-2.534 28.23-4.984c7.045-2.487 14.33-5.06 28.66-5.06 14.34 0 21.62 2.573 28.67 5.06 6.941 2.45 14.12 4.984 28.23 4.984v1.303"/><path d="m512 462.3c-14.33 0-21.62-2.573-28.66-5.06-6.941-2.453-14.12-4.986-28.23-4.986s-21.29 2.533-28.23 4.986c-7.045 2.487-14.33 5.06-28.67 5.06-14.33 0-21.62-2.573-28.66-5.06-6.939-2.453-14.12-4.986-28.23-4.986s-21.29 2.533-28.23 4.986c-7.042 2.487-14.33 5.06-28.66 5.06s-21.62-2.573-28.66-5.06c-6.941-2.453-14.12-4.986-28.23-4.986s-21.28 2.533-28.23 4.986c-7.043 2.487-14.33 5.06-28.66 5.06s-21.62-2.573-28.66-5.06c-6.94-2.453-14.12-4.986-28.23-4.986s-21.29 2.533-28.23 4.986c-7.044 2.487-14.33 5.06-28.66 5.06s-21.62-2.573-28.66-5.06c-6.94-2.453-14.12-4.986-28.23-4.986v-1.303c14.33 0 21.62 2.572 28.66 5.06 6.94 2.452 14.12 4.984 28.23 4.984s21.29-2.533 28.23-4.984c7.043-2.488 14.33-5.06 28.66-5.06s21.62 2.572 28.66 5.06c6.939 2.452 14.12 4.984 28.23 4.984s21.29-2.533 28.23-4.984c7.043-2.488 14.33-5.06 28.66-5.06s21.62 2.572 28.66 5.06c6.94 2.452 14.12 4.984 28.23 4.984s21.29-2.533 28.23-4.984c7.043-2.488 14.33-5.06 28.66-5.06s21.62 2.572 28.66 5.06c6.94 2.452 14.12 4.984 28.23 4.984s21.29-2.533 28.23-4.984c7.045-2.488 14.33-5.06 28.66-5.06 14.34 0 21.62 2.572 28.67 5.06 6.941 2.452 14.12 4.984 28.23 4.984v1.304"/><path d="m512 483.8c-14.33 0-21.62-2.572-28.66-5.06-6.941-2.452-14.12-4.984-28.23-4.984s-21.29 2.533-28.23 4.984c-7.045 2.488-14.33 5.06-28.67 5.06-14.33 0-21.62-2.572-28.66-5.06-6.939-2.452-14.12-4.984-28.23-4.984s-21.29 2.533-28.23 4.984c-7.042 2.488-14.33 5.06-28.66 5.06s-21.62-2.572-28.66-5.06c-6.941-2.452-14.12-4.984-28.23-4.984s-21.28 2.533-28.23 4.984c-7.043 2.488-14.33 5.06-28.66 5.06s-21.62-2.572-28.66-5.06c-6.94-2.452-14.12-4.984-28.23-4.984s-21.29 2.533-28.23 4.984c-7.044 2.488-14.33 5.06-28.66 5.06s-21.62-2.572-28.66-5.06c-6.94-2.452-14.12-4.984-28.23-4.984v-1.304c14.33 0 21.62 2.573 28.66 5.06 6.94 2.452 14.12 4.986 28.23 4.986s21.29-2.534 28.23-4.986c7.043-2.487 14.33-5.06 28.66-5.06s21.62 2.573 28.66 5.06c6.939 2.452 14.12 4.986 28.23 4.986s21.29-2.534 28.23-4.986c7.043-2.487 14.33-5.06 28.66-5.06s21.62 2.573 28.66 5.06c6.94 2.452 14.12 4.986 28.23 4.986s21.29-2.534 28.23-4.986c7.043-2.487 14.33-5.06 28.66-5.06s21.62 2.573 28.66 5.06c6.94 2.452 14.12 4.986 28.23 4.986s21.29-2.534 28.23-4.986c7.045-2.487 14.33-5.06 28.66-5.06 14.34 0 21.62 2.573 28.67 5.06 6.941 2.452 14.12 4.986 28.23 4.986v1.303"/><path d="m512 505.3c-14.33 0-21.62-2.573-28.66-5.06-6.941-2.452-14.12-4.986-28.23-4.986s-21.29 2.534-28.23 4.986c-7.045 2.487-14.33 5.06-28.67 5.06-14.33 0-21.62-2.573-28.66-5.06-6.939-2.452-14.12-4.986-28.23-4.986s-21.29 2.534-28.23 4.986c-7.042 2.487-14.33 5.06-28.66 5.06s-21.62-2.573-28.66-5.06c-6.941-2.452-14.12-4.986-28.23-4.986s-21.28 2.534-28.23 4.986c-7.043 2.487-14.33 5.06-28.66 5.06s-21.62-2.573-28.66-5.06c-6.94-2.452-14.12-4.986-28.23-4.986s-21.29 2.534-28.23 4.986c-7.044 2.487-14.33 5.06-28.66 5.06s-21.62-2.573-28.66-5.06c-6.94-2.452-14.12-4.986-28.23-4.986v-1.303c14.33 0 21.62 2.572 28.66 5.06 6.94 2.452 14.12 4.984 28.23 4.984s21.29-2.533 28.23-4.984c7.043-2.488 14.33-5.06 28.66-5.06s21.62 2.572 28.66 5.06c6.939 2.452 14.12 4.984 28.23 4.984s21.29-2.533 28.23-4.984c7.043-2.488 14.33-5.06 28.66-5.06s21.62 2.572 28.66 5.06c6.94 2.452 14.12 4.984 28.23 4.984s21.29-2.533 28.23-4.984c7.043-2.488 14.33-5.06 28.66-5.06s21.62 2.572 28.66 5.06c6.94 2.452 14.12 4.984 28.23 4.984s21.29-2.533 28.23-4.984c7.045-2.488 14.33-5.06 28.66-5.06 14.34 0 21.62 2.572 28.67 5.06 6.941 2.452 14.12 4.984 28.23 4.984v1.304"/><path d="m512 526.8c-14.33 0-21.62-2.572-28.66-5.06-6.941-2.451-14.12-4.984-28.23-4.984s-21.29 2.533-28.23 4.984c-7.045 2.488-14.33 5.06-28.67 5.06-14.33 0-21.62-2.572-28.66-5.06-6.939-2.451-14.12-4.984-28.23-4.984s-21.29 2.533-28.23 4.984c-7.042 2.488-14.33 5.06-28.66 5.06s-21.62-2.572-28.66-5.06c-6.941-2.451-14.12-4.984-28.23-4.984s-21.28 2.533-28.23 4.984c-7.043 2.488-14.33 5.06-28.66 5.06s-21.62-2.572-28.66-5.06c-6.94-2.451-14.12-4.984-28.23-4.984s-21.29 2.533-28.23 4.984c-7.044 2.488-14.33 5.06-28.66 5.06s-21.62-2.572-28.66-5.06c-6.94-2.451-14.12-4.984-28.23-4.984v-1.304c14.33 0 21.62 2.573 28.66 5.06 6.94 2.451 14.12 4.986 28.23 4.986s21.29-2.534 28.23-4.986c7.043-2.487 14.33-5.06 28.66-5.06s21.62 2.573 28.66 5.06c6.939 2.451 14.12 4.986 28.23 4.986s21.29-2.534 28.23-4.986c7.043-2.487 14.33-5.06 28.66-5.06s21.62 2.573 28.66 5.06c6.94 2.451 14.12 4.986 28.23 4.986s21.29-2.534 28.23-4.986c7.043-2.487 14.33-5.06 28.66-5.06s21.62 2.573 28.66 5.06c6.94 2.451 14.12 4.986 28.23 4.986s21.29-2.534 28.23-4.986c7.045-2.487 14.33-5.06 28.66-5.06 14.34 0 21.62 2.573 28.67 5.06 6.941 2.451 14.12 4.986 28.23 4.986v1.303"/><path d="m512 548.3c-14.33 0-21.62-2.573-28.66-5.06-6.941-2.45-14.12-4.984-28.23-4.984s-21.29 2.534-28.23 4.984c-7.045 2.487-14.33 5.06-28.67 5.06-14.33 0-21.62-2.573-28.66-5.06-6.939-2.45-14.12-4.984-28.23-4.984s-21.29 2.534-28.23 4.984c-7.042 2.487-14.33 5.06-28.66 5.06s-21.62-2.573-28.66-5.06c-6.941-2.45-14.12-4.984-28.23-4.984s-21.28 2.534-28.23 4.984c-7.043 2.487-14.33 5.06-28.66 5.06s-21.62-2.573-28.66-5.06c-6.94-2.45-14.12-4.984-28.23-4.984s-21.29 2.534-28.23 4.984c-7.044 2.487-14.33 5.06-28.66 5.06s-21.62-2.573-28.66-5.06c-6.94-2.45-14.12-4.984-28.23-4.984v-1.303c14.33 0 21.62 2.573 28.66 5.06 6.94 2.45 14.12 4.984 28.23 4.984s21.29-2.534 28.23-4.984c7.043-2.487 14.33-5.06 28.66-5.06s21.62 2.573 28.66 5.06c6.939 2.45 14.12 4.984 28.23 4.984s21.29-2.534 28.23-4.984c7.043-2.487 14.33-5.06 28.66-5.06s21.62 2.573 28.66 5.06c6.94 2.45 14.12 4.984 28.23 4.984s21.29-2.534 28.23-4.984c7.043-2.487 14.33-5.06 28.66-5.06s21.62 2.573 28.66 5.06c6.94 2.45 14.12 4.984 28.23 4.984s21.29-2.534 28.23-4.984c7.045-2.487 14.33-5.06 28.66-5.06 14.34 0 21.62 2.573 28.67 5.06 6.941 2.45 14.12 4.984 28.23 4.984v1.303"/><path d="m512 569.4c-14.28 0-21.54-2.564-28.56-5.041-6.967-2.46-14.17-5.003-28.34-5.003s-21.37 2.544-28.34 5.003c-7.019 2.477-14.28 5.041-28.56 5.041s-21.53-2.564-28.55-5.041c-6.965-2.46-14.17-5.003-28.33-5.003-14.17 0-21.37 2.544-28.33 5.003-7.019 2.477-14.28 5.041-28.55 5.041-14.28 0-21.53-2.564-28.55-5.041-6.966-2.46-14.17-5.003-28.33-5.003s-21.37 2.544-28.33 5.003c-7.017 2.477-14.27 5.041-28.55 5.041s-21.53-2.564-28.55-5.041c-6.966-2.46-14.17-5.003-28.34-5.003s-21.37 2.544-28.34 5.003c-7.018 2.477-14.27 5.041-28.55 5.041s-21.54-2.564-28.55-5.041c-6.967-2.46-14.17-5.003-28.34-5.003v-0.6523c14.28 0 21.53 2.564 28.55 5.041 6.966 2.46 14.17 5.003 28.34 5.003 14.16 0 21.37-2.544 28.33-5.003 7.017-2.477 14.27-5.041 28.55-5.041s21.53 2.564 28.55 5.041c6.967 2.46 14.17 5.003 28.34 5.003s21.37-2.544 28.33-5.003c7.017-2.477 14.27-5.041 28.55-5.041s21.53 2.564 28.55 5.041c6.967 2.46 14.17 5.003 28.34 5.003s21.37-2.544 28.34-5.003c7.017-2.477 14.27-5.041 28.55-5.041s21.53 2.564 28.55 5.041c6.966 2.46 14.17 5.003 28.34 5.003s21.37-2.544 28.34-5.003c7.019-2.477 14.28-5.041 28.56-5.041s21.54 2.564 28.56 5.041c6.967 2.46 14.17 5.003 28.34 5.003v0.6522"/><path d="m512 590.8c-14.27 0-21.52-2.56-28.53-5.036-6.973-2.463-14.18-5.009-28.37-5.009-14.18 0-21.39 2.546-28.37 5.008-7.013 2.477-14.26 5.037-28.53 5.037-14.26 0-21.51-2.56-28.52-5.037-6.973-2.462-14.18-5.008-28.36-5.008s-21.39 2.546-28.36 5.008c-7.012 2.477-14.26 5.037-28.53 5.037s-21.51-2.56-28.52-5.037c-6.973-2.462-14.18-5.008-28.36-5.008s-21.39 2.546-28.36 5.008c-7.01 2.477-14.26 5.037-28.52 5.037s-21.51-2.56-28.53-5.037c-6.973-2.462-14.18-5.008-28.36-5.008s-21.39 2.546-28.36 5.009c-7.012 2.476-14.26 5.036-28.52 5.036s-21.51-2.56-28.53-5.037c-6.972-2.462-14.18-5.008-28.36-5.008v-0.4882c14.26 0 21.51 2.56 28.53 5.036 6.973 2.463 14.18 5.008 28.36 5.008s21.39-2.546 28.36-5.008c7.011-2.476 14.26-5.036 28.53-5.036 14.26 0 21.51 2.56 28.53 5.036 6.973 2.463 14.18 5.008 28.36 5.008s21.39-2.546 28.36-5.008c7.012-2.476 14.26-5.036 28.52-5.036s21.51 2.56 28.52 5.036c6.972 2.463 14.18 5.008 28.36 5.008s21.39-2.546 28.36-5.009c7.013-2.475 14.26-5.035 28.53-5.035 14.26 0 21.51 2.56 28.52 5.036 6.972 2.463 14.18 5.008 28.36 5.008s21.39-2.546 28.37-5.009c7.013-2.475 14.26-5.035 28.53-5.035s21.52 2.56 28.53 5.036c6.973 2.463 14.18 5.008 28.37 5.008v0.4892"/><path d="m512 612.2c-14.25 0-21.49-2.558-28.5-5.032-6.98-2.464-14.2-5.014-28.39-5.014-14.2 0-21.41 2.548-28.39 5.014-7.007 2.474-14.25 5.032-28.5 5.032s-21.49-2.558-28.5-5.032c-6.98-2.464-14.2-5.014-28.39-5.014s-21.41 2.548-28.39 5.014c-7.006 2.474-14.25 5.032-28.5 5.032s-21.49-2.558-28.5-5.032c-6.978-2.464-14.2-5.014-28.39-5.014s-21.41 2.55-28.39 5.014c-7.004 2.474-14.25 5.032-28.5 5.032s-21.49-2.558-28.5-5.032c-6.978-2.464-14.2-5.014-28.39-5.014s-21.41 2.55-28.39 5.014c-7.004 2.474-14.25 5.032-28.5 5.032s-21.49-2.558-28.5-5.032c-6.979-2.464-14.2-5.014-28.39-5.014v-0.3243c14.25 0 21.49 2.558 28.5 5.03 6.979 2.464 14.2 5.014 28.39 5.014s21.41-2.55 28.39-5.014c7.005-2.473 14.25-5.03 28.5-5.03s21.49 2.558 28.5 5.03c6.978 2.464 14.2 5.014 28.39 5.014s21.41-2.55 28.39-5.014c7.004-2.473 14.25-5.03 28.5-5.03s21.49 2.558 28.5 5.03c6.979 2.464 14.2 5.014 28.39 5.014s21.41-2.55 28.39-5.014c7.004-2.473 14.25-5.03 28.5-5.03s21.49 2.558 28.5 5.03c6.978 2.464 14.2 5.014 28.39 5.014 14.2 0 21.41-2.55 28.39-5.014 7.007-2.473 14.25-5.03 28.5-5.03s21.5 2.558 28.5 5.03c6.98 2.464 14.2 5.014 28.39 5.014v0.3256"/></g></svg>
