<svg class="{{ classes }}" viewBox="0 0 80 80" xmlns="http://www.w3.org/2000/svg">
 <path d="m60.166 43.539c-0.11759 0.0099-0.23328 0.03414-0.34766 0.07227l0.47461 1.4219h-2e-3l-0.47266-1.4219-18.236 6.0781c-1.0264 0.3421-2.1358 0.3421-3.1621 0l-17.654-5.8848c-0.4574-0.1525-0.96036-0.07487-1.3516 0.20703-0.3911 0.282-0.62109 0.7346-0.62109 1.2168v6.2129c0 4.5284 3.1962 8.4283 7.6367 9.3164l12 2.3984c1.2299 0.246 2.4947 0.246 3.7246 0l12-2.3984c4.4405-0.8881 7.6387-4.788 7.6387-9.3164v-6.4082c0-0.4822-0.23195-0.9348-0.62305-1.2168-0.2934-0.21142-0.65115-0.30689-1.0039-0.27734z"/>
 <path d="m40 20.055c-0.1068 0-0.21381 0.01658-0.31641 0.05078l-32.838 10.945c-0.9117 0.3039-0.91169 1.5945 0 1.8984l7.5937 2.5312c-3.5484 1.437-5.9395 4.9079-5.9395 8.7988v6.1152l-0.99023 11.389a2.5 2.5 0 0 0 2.2734 2.707 2.5 2.5 0 0 0 1.2168-0.38476 2.5 2.5 0 0 0 1.2168 0.38476 2.5 2.5 0 0 0 2.2734-2.707l-0.99023-11.389v-6.1152c0-2.0206 1.3208-3.7711 3.2637-4.3262l5.9746-1.707 16.945 5.6484c0.2052 0.0684 0.42761 0.0684 0.63281 0l32.838-10.945c0.9116-0.3039 0.9117-1.5945 0-1.8984l-32.838-10.945c-0.1026-0.0342-0.20961-0.05078-0.31641-0.05078z"/>
</svg>
