<svg xmlns="http://www.w3.org/2000/svg" viewBox="0 0 640 512"><!--! Font Awesome Pro 7.2.0 by @fontawesome - https://fontawesome.com License - https://fontawesome.com/license (Commercial License) Copyright 2026 Fonticons, Inc. --><path opacity=".4" fill="currentColor" d="M192 96l0 57.3c46.9 19 80 65 80 118.7 0 19.8-4.5 38.5-12.5 55.2l24.9 56.8 67.6 0 0-64 160 0 0 64 32 0 0-288-352 0z"/><path fill="currentColor" d="M288 512l-288 0 56-128 176 0 56 128zm320-64l-295.6 0-28-64 259.6 0 0-288-352 0 0 57.3c-14.8-6-31-9.3-48-9.3-5.4 0-10.7 .3-16 1l0-113 480 0 0 416zM144 352a80 80 0 1 1 0-160 80 80 0 1 1 0 160z"/></svg>