<svg xmlns="http://www.w3.org/2000/svg" viewBox="0 0 576 512"><!--! Font Awesome Pro 7.2.0 by @fontawesome - https://fontawesome.com License - https://fontawesome.com/license (Commercial License) Copyright 2026 Fonticons, Inc. --><path opacity=".4" fill="currentColor" d="M0 232l0 48 112 0 0-48-112 0zM67.4 69.3l79.2 79.2 33.9-33.9-79.2-79.2-33.9 33.9zm0 373.4l33.9 33.9 79.2-79.2-33.9-33.9-79.2 79.2zM264-32l0 112 48 0 0-112-48 0zm0 464l0 112 48 0 0-112-48 0zM395.5 114.6l33.9 33.9 79.2-79.2-33.9-33.9-79.2 79.2zm0 282.8l79.2 79.2 33.9-33.9-79.2-79.2-33.9 33.9zM464 232l0 48 112 0 0-48-112 0z"/><path fill="currentColor" d="M160 256a128 128 0 1 1 256 0 128 128 0 1 1 -256 0z"/></svg>