<svg xmlns="http://www.w3.org/2000/svg" viewBox="0 0 640 512"><!--! Font Awesome Pro 7.2.0 by @fontawesome - https://fontawesome.com License - https://fontawesome.com/license (Commercial License) Copyright 2026 Fonticons, Inc. --><path opacity=".4" fill="currentColor" d="M9.5 256c13.2 7.9 55.5 33.3 127 76.1-20.3 80.8-32.2 128.7-36 143.6 14.9-3.7 62.8-15.7 143.6-36 42.8 71.5 68.2 113.8 76.1 127 7.9-13.2 33.3-55.5 76.1-127 80.8 20.3 128.7 32.3 143.6 36-3.7-14.9-15.7-62.8-36-143.6 71.5-42.8 113.8-68.2 127-76.1-13.2-7.9-55.5-33.3-127-76.1 20.3-80.8 32.3-128.6 36-143.6-14.9 3.7-62.8 15.7-143.6 36-42.8-71.5-68.2-113.8-76.1-127-7.9 13.2-33.3 55.5-76.1 127-80.8-20.3-128.6-32.2-143.6-36 3.7 14.9 15.7 62.8 36 143.6-71.5 42.8-113.8 68.2-127 76.1zm422.3 0a111.8 111.8 0 1 1 -223.6 0 111.8 111.8 0 1 1 223.6 0z"/><path fill="currentColor" d="M207.8 256a112.2 112.2 0 1 1 224.4 0 112.2 112.2 0 1 1 -224.4 0z"/></svg>