<svg version="1.1" viewBox="0 0 1e3 1e3" xmlns="http://www.w3.org/2000/svg"><g stroke="#00b140"><g transform="matrix(1.084 0 0 -1.084 -462.4 562)" fill="none" stroke="#00b140" stroke-linecap="round" stroke-miterlimit="10" stroke-width="12.63"><path transform="matrix(.1333 0 0 -.1333 0 716.5)" d="m3134 2075 0.027 4.379c2.189 1.25 4.379 2.502 6.57 3.756 103.3 59.12 207.5 123.1 310.8 191.7 90.73 60.3 179.7 124.5 265.6 192.4 69.16 54.65 133.8 113 197.3 172.1-59.41-55.59-114.2-114.4-178.7-166.1-86.26-69.13-176-133.8-267.4-194.6-91.37-60.71-183.3-117.5-275.3-170.3-19.72-11.33-39.33-22.48-58.84-33.47zm785.3 569.1c19.24 17.86 38.97 35.29 57.62 53.54-5.344-5.265-9.587-11.12-14.99-16.35-13.4-12.99-28.87-24.46-42.64-37.19zm57.62 53.54c70.91 69.85 138.1 141.7 198.9 216.9 65.34 80.78 124 164.4 175.6 250.4 51.52 86.01 95.57 174 132 263.4s65.16 179.9 86.37 270.9c21.2 91.04 34.87 182.1 41.04 272.4 6.15 90.2 5.367 179.2-1.473 266.8-6.83 87.57-18.72 173.7-34.23 258.7-15.52 85.03-33.38 169.6-51.77 254.8s-35.54 172.8-49.57 264.6c-14.04 91.76-23.55 189.3-27.95 293.7-4.39 104-8.131 212-12.45 317.3-4.274 104.4-7.717 209.7-8.5 316.5-0.8 107.8 2.49 218.8 10.97 334.1 8.49 115.3 23.02 236 45.76 364.1 26 146.4 62.18 300.4 113.2 464.6 51 164.3 120.1 339.3 208.4 521.2 88.7 182 196.3 367.9 323.2 553.4 57.5 84.1 118.8 167.3 183.5 249.2"/><path transform="matrix(.1333 0 0 -.1333 0 716.5)" d="m3534 8431c-25.62-75.05-51.46-153.4-77.46-235.5-97.53-308-195.9-673.8-292.6-1084l0.9532 159.1c92.49 407.9 184.1 761.5 272.5 1055 10.7 35.59 21.36 70.45 32 104.6z"/><path transform="matrix(.1333 0 0 -.1333 0 716.5)" d="m4759 8431c-1.956-2.425-3.91-4.851-5.863-7.279-154.4-192-285.5-390.9-396.1-587.9-110.6-196.9-203.2-388.4-281.8-572.1s-144.7-357.3-200.1-518.6c-55.45-161.3-100.7-311.4-140.2-452-39.51-140.6-74.1-273.1-103.7-395.9-29.56-122.9-53.87-235.1-72.9-336.6-25.39-135.3-43.67-255.9-55.17-363.4-11.49-107.5-16.9-204.2-17-292.5s4.299-169.6 11.61-247c7.31-77.33 16.14-153.1 24.8-229.8 8.66-76.69 15.47-155.9 19.39-237.6s6.693-162.3 7.123-242.8c7.31-72.52 11.8-145.5 15.84-216.3s7.065-140 7.975-208.5c0.91-68.49-1.325-136.8-7.785-205.4-6.47-68.56-17.89-137.4-34.76-206.3s-39.68-137.7-68.83-206c-29.16-68.36-64.8-136-106.8-202.4-42.04-66.42-90.03-131-143.5-193.7-24.15-28.32-49.29-56.21-75.33-83.61l3.227 538.8c8.28 37.46 14.96 75.06 20.2 112.8 7.65 54.97 11.78 110.1 13.73 165.7 1.94 55.56 2.307 111.9 1.607 169.4s-1.864 116.6-2.824 178.1c-0.96 61.37-3.72 122.2-9.31 180-4.649 48.12-10.81 94.28-17.75 139.2 0 0 1e-4 0 0 0.01l5.527 923c8.05 49.6 17.4 102.5 28.37 159.5 21.33 111 50.43 242.9 89.4 402.3 38.98 159.4 89.63 351.6 154.4 580.9 64.73 229.3 146.3 497 254.9 805.4 108.5 308.4 253.3 647.1 438.3 996.2 117.5 221.7 255.6 441.5 410.7 654.5z"/><path transform="matrix(.1333 0 0 -.1333 0 716.5)" d="m9791 8431c-19.85-32.49-35.99-67.95-48.44-106.4-15.51-47.88-23.3-100.9-22.68-158.9 0.62-58.06 9.854-121.2 27.39-188.9 17.55-67.71 42.67-139.6 74.53-215.1s69.89-154.3 112.6-235.8 87.85-164.3 136-250.1c29.46-52.5 59.63-105.4 90.41-158.8v-3676c-23.59-29.08-47.66-58.31-72.22-87.66-176.7-211.2-404.5-435.9-667-649.1-262.1-212.9-674.3-505-1202-780.9-263.8-138-570.6-268.8-911.9-385.1-141.4-48.21-285.5-96.24-432.9-142.5h-3745l42.12 7035zm-1110-7035c391.6 222.4 689.5 422.7 949.2 624.2 179.7 149.7 359.9 312 530.5 479.5v-1104z"/><path transform="matrix(.1333 0 0 -.1333 0 716.5)" d="m10161 8431v-6563c-35.58-30.34-71.7-60.83-108.3-91.38-162.6-135.6-322.3-262.3-481.5-380.3h-6441l1.791 299.1c2.848 0.8465 5.702 1.695 8.561 2.545 190.9 56.78 402.7 125.6 645.6 198.9 182.7 55.14 378.5 120.2 584.4 194.9s417 160.9 628.9 258.9c211.9 98.06 420.5 208.4 622 333.2s392.5 262.3 566.8 409.9c232.7 197 435.4 404 600.7 614.9 165.3 211 291.6 421.3 378.7 627.1 87.13 205.8 135.4 405.1 146.1 596.8 10.67 191.6-15.31 373.9-74.59 545.9-59.27 172-146.9 334.2-254.3 487.7-107.5 153.5-225.9 300.6-342.5 445.1s-221.7 289.1-300.5 440.3-130.1 309.2-157.3 469.6-26.61 324.9-1.148 489.6c25.29 163.5 71.62 324.8 138 482.4 19.57 46.47 40.86 92.53 63.83 138.1zm-4153 0c-49.28-77.54-94.19-155.9-134.4-234.6-57.68-112.8-105.2-225.5-142.9-337.5-37.67-112-65.09-223-83.42-333.2-18.32-110.2-26.1-219-27.35-327.4-1.25-108.7 7.138-215.4 22.57-321 15.43-105.6 36.74-210.7 63.18-315 29.08-103.3 67.29-203 114-299.8 54.5-113 116.4-223.6 180.1-334.6 63.65-110.9 128.4-222.2 187.1-336.8 58.67-114.6 108.7-233.1 146.4-356.2s60.75-251.1 66.96-384c6.22-132.9-5.606-270.2-35.33-410.1s-77.53-281.4-143-423.4c-65.48-142-148.4-283.3-247.9-422.1s-214.7-273.5-343.8-402.1c-129.1-128.5-270-249.4-418.7-361.6-148.6-112.2-307.1-217.6-470-313.6-162.8-96.07-328.5-183.2-493.3-261.4-164.8-78.27-326.5-148.4-482.5-212.2-133.1-54.48-259.3-104.4-379.5-150.2-88.04-33.55-172.6-65.04-253-94.5l0.3848 64.39c109.2 44.57 225.2 93.59 349.8 148.6 145.2 64.1 302.1 138 464 220.2 162.1 82.27 326.7 173.8 489.4 275.2 122 76.04 240 157.9 352.6 244.7 112.6 86.82 219 178.6 317.4 274s189.7 195.7 272.7 299.9c82.93 104.2 156.6 211.5 220.1 321.1 63.5 109.5 116.3 220.5 158.1 332 41.72 111.5 72.13 223 91.11 333.7 18.99 110.7 26.53 219.8 22.73 326.4-3.79 106.6-18.13 210.3-41.54 311-23.4 100.7-54.47 198.4-91.29 293.3-36.84 94.99-78.44 187.4-122.5 278s-88.5 180.2-130.6 270.4-79.87 182.5-110.7 278.7c-30.78 96.23-52.3 198.5-68.15 303.6-15.84 105.1-27.49 211.4-33.49 319.7-5.99 108.2-6.216 218.2-0.9863 328.8 5.24 110.6 18.46 223.5 41.57 339.8s55.97 234.7 99.79 355.6 97.04 242.9 165.6 367.4c63.89 115.9 136.7 231.4 217.4 345.2z"/><path transform="matrix(.1333 0 0 -.1333 0 716.5)" d="m8653 1396c271.5 150.2 515.5 312.9 687.6 433.9 288.5 203 570.8 442.3 794.4 663.1 8.49 8.384 16.96 16.77 25.42 25.17v-596c-144.5-126.1-290.3-246.5-420.8-343.2-76.1-56.37-162.5-117.9-257.7-183.1zm-1876 7035c-11.43-29.45-22.16-59.19-32.19-89.22-26.72-80.05-48.11-162.1-62.69-246.1-14.57-84-22.31-169.5-22.3-255.4 0.01-85.93 8.809-171.7 26.03-257.4 17.23-85.7 40.16-172.1 73-257.4 32.85-85.28 78.49-167.8 128.5-250.1 64.11-78.26 129.1-157.3 199.4-236.2 70.29-78.86 144.2-158.1 219.4-238.4 75.21-80.29 150-162 222.2-245.7 72.19-83.68 140.2-169.6 202.3-258.1 62.07-88.48 116.9-179.5 163.2-273.1 46.32-93.65 83.23-190 109.8-289 26.55-99.04 42.1-200.8 46.25-305 4.15-104.3-3.159-210.8-25.95-320.5-45.57-219.5-134.1-447.2-275.3-685s-337.4-484.6-586.8-734c-210.5-210.4-457.3-415.3-733.6-607.2s-575.3-363.7-881.5-506.1-625.6-262.5-927.8-357.4c-302.2-94.92-581.8-171.7-830.9-233.3-176-43.51-326.5-82.84-471.7-118.8-63.25-16.74-125.4-32.97-185.7-48.62l1.707 285c83.63 35.82 170.7 74.03 261 114.8 117.3 52.95 237.5 110.7 359.3 173.5 121.8 62.73 246.5 131 371.6 205.2 187.6 111.3 370.1 235.2 542 371.3 171.9 136.2 330.4 285.5 467.8 443.6 137.3 158.1 255.8 326.7 350.8 501.6 95.06 174.9 165.1 353.4 210.9 532.6 30.54 119.4 46.12 237.3 48.62 352.4 2.51 115.1-7.176 226.9-27.33 335.4-20.16 108.4-49.12 213.5-85.32 315.4-36.19 101.8-77.58 200.7-121 298.1-43.48 97.34-86.46 194.3-125.6 292.9-39.17 98.63-72.04 200.8-95.28 309.5-23.22 108.6-39.71 221.2-51.81 335-12.09 113.8-18.4 229.4-18.68 346.7s5.289 235 19.88 355.1c14.59 120.2 40.08 244 77.67 371.6 37.58 127.6 88.63 259.2 154.1 393.8s145.8 271.2 239.4 407.4c16.42 23.88 33.17 47.67 50.24 71.36zm-1902 0c-169.3-218-316.2-441.3-436.2-660.5-126.7-231.5-227.4-452.9-309.3-662.4-81.93-209.4-146.9-402.8-199.1-580.1-52.17-177.3-93.2-339-124.5-485.6s-54.04-279.2-69.3-399.6c-15.25-120.4-23.66-230.1-25.96-329.9s0.6511-191.8 7.121-279.2c6.48-87.39 15.18-172.4 24.1-257.7 8.91-85.24 16.36-172.4 20.84-261.5 4.47-89.1 7.346-177.6 12.33-260.6 4.96-83.07 11.5-161.7 18.84-237 7.35-75.35 14.35-148.6 19.6-221 5.24-72.34 7.665-144.4 5.945-216.9-1.7-72.5-8.471-145.7-20.96-219.3-12.5-73.69-30.82-147.3-55.36-220.4-24.54-73.13-55.54-145.5-93.06-216.8-37.53-71.29-81.47-141.1-131.5-209-49.99-67.92-105.3-133.6-165.4-197-60.08-63.35-124.3-124.2-191.6-182.1-8.982-7.73-18-15.41-27.06-23.03l16.53 2760c3.289 14.32 6.682 28.93 10.18 43.83 29.31 124.9 67.26 274.7 115.4 454.2 48.19 179.5 107.9 391.6 181.4 637.2 73.49 245.7 166.2 527.3 286.6 837.3s279.3 641.6 463.8 958.3c84.86 145.7 179 289 280.3 428.4zm-1309 0c-59.07-163.9-119.4-345.8-178.8-545.6-76.26-256.6-151.4-542.7-224.9-847.8l1.297 216.7c71.38 307.2 142 589.6 211.5 837 33.86 120.5 67.28 233.3 100.2 339.6zm-107.8 0c-71.91-234.9-140.7-506-217.6-820.9-25.64-105-51.2-213.9-76.78-325.8l6.867 1147z"/><path transform="matrix(.1333 0 0 -.1333 0 716.5)" d="m5509 1396c423.3 72.66 859.2 179 1298 311.2 606.3 233.4 1141 490 1559 745.1 418.7 255.3 744.4 512.9 967.7 721.5s416.3 426.1 560.5 622c102.1 138.7 191 276.9 265.7 412.2v-1351c-150-158.5-324.5-324.8-509.6-482.4-234.5-199.8-521.8-406.4-915.1-638-194-114.2-420.1-229.9-675.3-340.8zm4651 7035v-2257c-69.98 129.5-149.9 260.3-229.5 387-100.5 153-209.8 305.8-317.2 454.5-80.6 111.5-158.7 219.3-233.4 325.6s-143.5 209.9-203.9 310.4c-60.44 100.6-110.9 197.7-149.6 290.8s-64.88 181.8-77.51 265.4c-12.04 79.7-13.32 154.4-5.185 223.6zm-6251 0c-123.5-229.9-246.8-493.9-354.1-778.2-110.1-291.8-208.6-602.1-298.9-918.1-33.56-117.5-65.82-234.1-97.04-349.1l1.117 186.7c40.63 152.1 82.74 305.6 126.6 459 127.8 446.4 262.3 854.4 426.4 1211 29.78 64.79 59.35 127.5 88.76 188.3z"/><path transform="matrix(.1333 0 0 -.1333 0 716.5)" d="m9078 1396c225.5 146 423.7 286 584.6 410.7 168 130.2 335.9 275.4 497.5 424.4v-13.37c-110.2-103-221.8-203.7-333.1-296.9-167.7-140.4-355.3-280.3-551.4-416.3-54.98-35.47-112.4-71.7-172.4-108.6zm-5467 7035c-78.22-207.5-159.6-444-237.6-707.2-72.27-244.5-142.5-508.3-211-781l0.7539 126.1c20.55 85.6 41.28 170.2 62.27 253.5 99.78 395.9 200.3 740.5 300.1 1029 9.377 27.09 18.73 53.76 28.07 80.01zm-94.97 0c-108.7-339.3-215-732.7-327.2-1195-8.509-35.07-16.94-70.32-25.31-105.7l0.6192 103.4c92.6 396.9 184.3 750.2 273.7 1046 15.71 51.92 31.34 102.4 46.95 151.4z"/><path transform="matrix(.1333 0 0 -.1333 0 716.5)" d="m3806 8431c-1.24-2.313-2.481-4.628-3.721-6.945-167.1-371.8-323-784.1-460.9-1244-63.19-211.9-123.1-425.9-180.3-637.6l1.496 249.8c63.13 247.3 128.7 489.9 197 720.1 103.6 348.3 209.5 653.5 323.5 918.7zm-149.8 0c-44.61-110.9-89.56-229.4-134.3-355.7-126-355.3-246.1-773-359-1224l1.125 187.9c55.38 226 111.5 444.4 168.3 649.1 77.96 279.3 157.7 527.3 233.6 742.9z"/><path transform="matrix(.1333 0 0 -.1333 0 716.5)" d="m3961 8431c-58.64-101.8-116.5-207-173.7-314.9-164.4-370.4-308.8-757-432.2-1163-69.54-230.1-134.9-456.4-196.1-674.1l1.766 294.8c9.242 35.13 18.55 70.38 27.92 105.7 111 418.9 234.3 824.6 371.6 1187 77.72 205.1 159 393.1 241.5 564.8zm-202.2 0c-117.7-257.1-236.5-557.6-343-890.5-90.48-282.9-175-582.5-254.5-884.5l1.172 195.7c84 336.6 172.1 656.9 264 945.7 74.35 233.7 152.3 445.6 229 633.6z"/><path transform="matrix(.1333 0 0 -.1333 0 716.5)" d="m9415 8431c-4.186-15.38-7.664-31.24-10.45-47.58-9.66-56.57-11.34-118.3-3.162-185 8.17-66.76 26.17-138.3 53.37-214 27.21-75.77 62.72-155.4 105.8-238.6 43.12-83.17 93.28-169.8 149.1-259.4 55.91-89.61 113.7-180.6 173-272.9 59.25-92.33 118.9-185.7 177.3-279.3 34-54.46 67.57-108.9 100.9-163.6v-3108c-75.13-102.3-161.4-209.4-255.8-317.5-94.44-108.2-199.8-218.5-320-332.9-119.8-114.1-255.2-231.5-410.6-353.4-153.4-120.4-336.4-250.3-555.9-388.1s-480.2-280.1-785-418.6c-304.4-138.8-646.3-267.9-1011-377.9-92.9-28-186.2-54.21-279.7-78.66h-3412l0.459 76.75c80.25 14.04 165.9 28.62 257.3 43.69 151.4 24.95 325.1 51.03 519.2 80.68 194.1 29.64 408.3 64.92 641.7 108.7 273.7 51.28 563.1 116.4 856.6 201.2 293.7 84.82 587.3 190.5 874.2 315.7 287 125.3 561.8 266.1 814.3 415.7 252.6 149.8 482.1 304.3 684.4 459.1s378.3 307 529.2 455.1c151.3 148 278.4 292.1 384.2 432.1 105.8 139.9 192.4 275.7 261.3 407.8 68.94 132 121.5 261.2 159.1 388.8 37.68 127.6 60.53 253.5 68.79 378s2.443 246.9-16.45 367.7c-18.9 120.8-53.6 240.4-102.1 358s-111.5 234-188.7 349.3c-88.3 131.8-191.9 262.1-308.2 390.9-115.4 127.9-237.4 252.6-352.5 373.6-115 121-218.8 239.2-307 355.7s-158 232.2-207 347.5c-48.97 115.3-77.21 230-92.84 341.2s-18.38 219.1-6.717 323.5c2.405 21.56 5.433 42.94 9.098 64.12zm206.8-7035c8.479 6.059 16.91 12.11 25.3 18.17-8.029-5.978-16.06-12.04-24.09-18.17zm25.3 18.17c156.6 116.6 313.4 229.5 469.5 355-85.48-69.84-171.7-138.2-257.9-203.9-65.19-49.64-141.8-100.8-211.5-151.1zm-4220 7017c-144.4-187.1-265.8-377.1-371.6-568.2-64.95-117.4-117.6-231.2-161.8-341.6-44.18-110.4-80.11-216.6-108.1-318.1-27.98-101.6-48.63-198.6-63.54-292s-25.02-184-31.07-272.3c-6.05-88.29-8.629-174.8-8.189-260 0.45-85.18 3.734-169.3 9.014-252.9 5.28-83.73 13.21-166.2 19.73-249.9 6.51-83.76 14.72-167 24.16-249.6 10.77-81.17 25.35-158.7 43.81-232.6 18.46-73.88 39.91-144.8 66.26-212.9 52.69-136.1 100.9-274.6 141.2-417 40.33-142.3 66.47-290.6 72.51-444.9 6.03-154.3-11.04-313.5-51.14-473.2-40.11-159.8-102.6-317.4-187.9-470.8s-192.8-300.7-318.6-440.2c-94.37-104.6-199.3-203.1-312-295.5s-229.7-179.7-351.2-260.1-244.5-154.3-367.2-222.1c-116.8-64.53-231.6-123.7-337.9-175.5l2.512 419.5c44.8 44.27 87.57 89.95 128.1 137 46.73 54.2 88.68 109.6 126.4 166.3 37.7 56.66 70.95 114.5 99.58 173.1 28.63 58.61 52.7 117.9 72.3 177.6 19.61 59.69 34.92 119.6 46.27 179.7 11.34 60.02 18.84 119.8 22.97 179.5 4.12 59.62 5.367 119.2 4.447 179-0.91 59.79-3.34 120.2-6.19 182-2.83 61.77-6.904 124.7-10.16 190.2-3.26 65.58-5.744 134.2-7.244 206-1.51 71.8-3.999 144.4-8.879 215.5-4.83 70.93-11.28 140.2-18.22 208.5-6.95 68.28-13.35 136.9-18.22 207.4-4.87 70.54-7.333 144.3-6.393 223.4 0.94 79.01 5.786 164.2 14.99 256.5 9.21 92.31 23.13 192.9 42.29 303.4s44.09 232 75.59 365.9c31.5 134 70.36 281 117.3 440.6 46.93 159.6 102.1 329.5 168.8 512.2 66.68 182.7 147.3 378.2 244.6 583.5 97.45 205.5 211.9 417.5 357.3 634.2 69.97 104.3 144.5 207.4 223.2 308.6zm-1730 0c-55.37-128.8-110.6-267.4-164.7-416.6-104.5-287.9-203.5-613.7-297.3-964.8-24.81-92.8-49.05-186.2-72.84-279.7l0.3242 54.17c4.656 18.65 9.322 37.31 14 55.96 98.87 394.2 204.1 761.9 314.7 1083 58.1 169.1 117.2 324.6 176.2 467.6zm-533.9-1499 0.045 7.629c14.41 60.81 29.08 121.6 44.74 182.9 15.4 60.33 30.57 108.7 45.75 165.6-30.67-116.4-60.72-235.4-90.54-356.1zm98.82 387.8c28.77 111.6 55.38 236.5 85.07 340.4 32.46 113.1 65.39 221.4 98.36 324.6-62.67-203.2-122.6-431.8-183.4-665zm336.6 1111c-49.94-135.8-101.6-284.9-153.2-446.3 45.28 146.8 92.04 286.6 141.7 420.1 3.734 8.76 7.466 17.49 11.19 26.19z"/><path transform="matrix(.1333 0 0 -.1333 0 716.5)" d="m9814 1396c115.3 84.89 232.1 173.5 347 263.5v-6.969c-23.33-18.86-47.06-37.96-71.21-57.27-94.19-75.86-182.5-138.4-270.2-199.3zm-6168 7035c-48.91-123.9-98.02-256.7-147-399.4-116.9-340.5-229-735.3-335.6-1156l0.9004 150.3c50.72 209.9 101.5 416.4 153 605.2-17.61-63.33-35-114.2-53.06-183.4-34.55-132.4-66.63-280.6-99.97-421.4l1.078 180.3c95.16 405.2 189.8 766.3 282.2 1067 16.49 53.7 32.89 105.8 49.25 156.5zm-320-767.7c64.4 238.8 127.6 472.7 193.8 671.5-39.69-117.8-79.79-243.9-120.1-379-25.04-83.87-48.91-199.1-73.65-292.5z"/><path transform="matrix(.1333 0 0 -.1333 0 716.5)" d="m9805 1396c23.99 18.34 47.98 36.66 71.89 54.79-23.45-17.82-46.9-36.2-70.3-54.79zm71.89 54.79c95.97 72.92 189.4 144.4 283.3 218.4v-4.336c-18.76-15.64-38.13-31.62-59-48.43-75.82-61.39-148.3-108-224.3-165.6zm-2470 6980c-8.919-45.89-15.11-92.71-18.64-140.2-6.67-89.55-2.822-180.8 10.57-273.9 13.39-93.05 35.46-188.1 68.63-284 33.18-95.98 81.42-191.1 143.8-285.5 62.44-94.39 137.6-188.4 223.2-282.8 85.61-94.35 179.6-189.6 278.4-286.5 98.76-96.96 196.2-196.6 290.4-298.6 94.35-102.2 180.6-206.7 256.2-312.1 75.59-105.4 139.6-211.6 191.1-318.8 51.48-107.2 90.05-215.7 115.4-325.6 25.38-109.9 38.86-221.5 36.1-334.4-4.6-188.2-37.11-379.5-104.3-575.6-67.21-196-172.5-398.9-319.9-609.9-147.5-211.1-340.6-429.7-583.1-655.2-242-225.1-537.5-454.1-884.4-677-346.2-222.4-733.7-426.4-1134-589-399.7-162.6-831.9-297.2-1239-386.9-242.8-53.53-460.1-101.1-664.9-136.6-204.8-35.52-388.4-66.91-553.1-94.9-143.6-24.41-273.9-47.22-390.5-69.54l2.48 414.1c72.07 30.99 146.4 63.59 222.2 97.5 184.1 85.73 372.6 179.4 552 280.6 203.7 110.8 395 230.1 577 363.3s349.2 279 496.6 435.7c147.7 156.9 273.9 324.3 375.7 499s177 353.8 224 533.4c47.03 179.6 65.37 357 58.86 528.6-3.9 103-18.34 202.7-40.12 299.4-21.79 96.76-50.23 190.4-83.56 281.4-33.34 90.97-69.8 179.7-107.1 267.3s-73.78 175.1-107 263.9c-33.26 88.79-61.56 180.2-82.46 276.6-20.91 96.36-34.52 197.6-45.62 299.1-11.12 101.5-18.31 204.1-20.53 308.1s-1.446 208.3 4.904 313.5 18.9 211.8 39.98 321.6 51.27 222.8 91.83 339.3c40.57 116.5 92.14 236 155.2 357.9 63.09 121.9 138 245.2 223.8 368.2 20.73 29.66 41.95 59.19 63.66 88.56zm-3192 0c-99.17-152-189.9-312.6-276.9-486-260.3-526.7-460.4-1074-612.4-1575-62.41-206.9-118.9-398.6-170.2-575.3l3.225 538.8c47.53 171.9 97.56 348.1 150.5 526.1 120.6 405.4 248.7 792.7 412.6 1143 71.39 152.4 142.5 295 215.1 428.8zm-714.9 0c-37.21-116-74.96-239.7-113.1-372.3-73.9-256.8-148.3-549.1-223-864.5l0.1504 25.14c84.95 360.8 169.2 688.7 251.9 968.6 25.05 84.73 49.91 165.7 74.71 243.1zm-75.1 0c-23.71-83.89-47.94-172.3-72.91-265.7-60.82-227.6-123.4-486.7-187-774.7l0.2656 44.22c29.09 134.5 58.12 263.5 87.14 385.4 53.88 224.9 106.3 427.1 157.2 610.8z"/><path transform="matrix(.1333 0 0 -.1333 0 716.5)" d="m7828 1396c74.27 28.77 146.4 58.3 216.4 88.42-16.81-7.771-33.71-15.53-50.75-23.29-48.58-22.1-98.63-43.83-150-65.13zm216.4 88.42c330.8 152.9 616.8 309.2 857.2 453.4-147.2-91.47-309.4-185.2-482.7-275.8-115.9-60.53-241.1-120.1-374.5-177.6zm857.2 453.4c216.6 134.6 401 264.2 541.7 371.1-64.22-51.55-130.6-103.3-199-155.1-101.4-67.13-215.7-139.9-342.7-216zm541.7 371.1c200.2 160.7 378.9 319.5 529.6 470.4 64.49 64.59 127.2 129.8 187.9 194.9v-12.88c-16.51-17.69-33.12-35.32-49.8-52.83-182.4-191.6-408.8-400.7-644.4-581.8-7.638-5.871-15.42-11.83-23.34-17.85zm-6067 6122c-21.12-78.5-42.13-160.5-63.29-246.3-47.05-191.1-95.77-405.8-146.3-640.6l0.3379 56.21c18.02 85.27 35.85 167.9 53.5 247.4 47.83 215.5 91.88 408.1 135.1 583.3zm-71.77 0c-15.95-67.81-31.96-138.2-48.06-211.5-28.49-129.8-57.84-270.8-88.21-422.8l0.7852 131c9.777 50.26 19.44 99.21 29.01 146.8 25.49 126.7 49.63 245 74.22 356.5z"/><path transform="matrix(.1333 0 0 -.1333 0 716.5)" d="m8540 1396c251.1 132.4 459.5 259.8 647.7 381.4-183.1-122.2-384.6-247.7-629-381.4zm647.7 381.4c32.91 21.96 60.63 43 91.86 64.65-18.58-13.49-31.68-27.35-50.42-40.7-11.56-7.534-29.68-16.36-41.43-23.95zm91.86 64.65c203.6 147.7 387.5 299.6 552.7 446-99.32-88.25-186.9-180.7-297.2-266.2-75.18-58.22-168.6-119.6-255.4-179.8zm556.7 449.5c64.24 56.85 130.8 113.4 191.7 171.6-28.46-27.32-53.9-56.91-82.45-83.46-30.25-28.14-76.45-59.2-109.2-88.15zm191.7 171.6c44.33 42.55 88.68 85.72 132.7 129.2v-12.83c-44.1-38.95-91.15-76.6-132.7-116.3zm-6769 5968c-20.92-97.51-42.08-200.9-63.51-310.6-8.485-43.46-17.07-88.27-25.77-134.4l0.6778 113.2c1.33 6.967 2.659 13.9 3.986 20.81 21.06 109.5 41.95 213 63.81 311z"/><path transform="matrix(.1333 0 0 -.1333 0 716.5)" d="m9658 1396c137.8 99.38 272.6 202.8 411.5 314.5 30.93 24.87 61.22 49.42 90.91 73.66v-32.19c-68.03-56.17-137.5-112.3-208.4-168-83.11-65.31-164.9-127.8-245.9-188zm-6493 5853 0.1543 25.72c11.12 49.06 22.3 97.59 33.57 145.5 54.49 231.7 102.8 367.4 153.9 549.6-61.98-225.3-124.4-459.9-187.6-720.8zm235.3 1182c-21.72-78.42-43.73-160.9-66.03-247.7-54.16-210.8-110.4-449.8-168-715.8l0.2559 42.75c29.2 136.9 57.76 266.9 85.57 389.3 45.16 197.5 88.4 373.4 130.7 531.5zm79.34 0c-36.27-121.8-73.87-265-110.9-402.2 24.41 92.04 50.12 220.4 73.99 299.4 11.47 37.97 23.08 70.18 34.65 102.8z"/><path transform="matrix(.1333 0 0 -.1333 0 716.5)" d="m9641 1396c174.4 127.6 346.5 262.1 519.6 406.9v-28.04c-85.65-71.28-173.9-143-263.5-213.5-73.36-57.68-145.8-112.5-218-165.4zm-6307 7035c-52.89-213.2-107.9-458.3-166.7-740.5l0.8242 137.4c24.41 123.2 48.12 239 71.22 347.2 19.14 89.37 38.12 174.5 56.98 255.9zm-86.47 0c-25.67-121.2-51.68-250.4-78.16-389.3l1.826 304.8c5.346 28.67 10.69 56.83 16.03 84.49z"/><path transform="matrix(.1333 0 0 -.1333 0 716.5)" d="m9537 1396c39.5 32.12 78.85 65.02 119.1 95.56-39.51-30.43-77.42-63.55-115.7-95.56zm119.1 95.56c169.7 130.7 340.8 264.2 504.8 401v-8.334c-164.6-137.5-335.5-263.9-504.8-392.6zm-6489 5977v0.018-0.018zm231.1 962.6c-19.46-72.38-39.23-148.2-59.73-227.9-55-213.6-112.5-461.9-171.3-734.8v0.7305c38.1 180 76.45 363.5 112.6 513.7 39.4 163.4 77.69 312.7 114.3 448.2zm-67.58 0c-45.97-195.2-92.74-411.6-144.4-656.5-5.89-27.9-11.8-56.16-17.74-84.74l0.4316 72.01c24.21 120.2 47.79 233.7 70.82 340.2 25.34 116.7 50.22 226.1 75 329z"/><path transform="matrix(.1333 0 0 -.1333 0 716.5)" d="m6525 8431c-2.231-4.634-4.445-9.274-6.642-13.92-43.77-92.53-80.65-187.1-110.4-283.3-29.81-96.21-52.49-194-66.44-293-13.95-99.02-18.67-198.2-13.32-296.5 5.36-98.33 20.82-195.5 45.03-292.1 24.21-96.61 59.08-191.3 106-282.6 46.88-91.35 103.9-180.3 168.4-267.9 64.54-87.57 134.4-174.6 206.9-262.2 72.43-87.6 145.1-176.5 215.3-267.7 70.21-91.13 135.7-185 194-282 58.3-97.07 107.8-197.6 146.8-302 38.96-104.4 66.15-212.5 80.32-324.6s14.65-228.2-1.406-348.1c-26.76-199.8-89.08-406.5-192.2-619.7-103.1-213.2-247.8-431.3-433.6-649.6s-410.2-431.1-667.1-630.6-539.2-379-834.3-530.2c-294.5-151.6-599.5-281.1-894.1-386.1-294.2-104.9-567.3-192.1-811.4-264.3-155.9-46.12-291.8-86.08-417.5-122.7-36.77-10.72-72.7-21.16-107.8-31.35l0.3847 64.5c19.1 6.225 38.5 12.56 58.21 19.01 114.8 37.57 240.8 79.73 375.6 125.9 134.8 46.19 279.5 96.57 435.5 153.8 278.2 101 565.1 220.9 853.9 363.4 288.9 142.6 568.7 308.2 828.4 498.7 259.7 190.4 489.8 399.9 681.8 620.1s342 444.3 448.1 666.1 168 437.7 185.2 644.7c8.61 103.5 7.364 204.5-3.256 302.7s-30.1 193.5-56.72 286.4c-26.62 92.89-64.87 181.6-109.8 267.5-44.91 85.81-95.35 169-149.6 249.9-54.29 80.93-110.9 160.1-167.9 238.1-57.05 78-113.1 155.4-168.3 232.2-55.28 76.72-104.5 154.7-147.4 234.3s-78.33 161.5-106.3 246c-26.55 84.6-48.56 169.6-65.1 254.9-16.56 85.33-25.38 172.3-26.39 260.9-1.02 88.53 5.444 178.1 19.01 267.6 13.55 89.46 32.92 178.5 58.04 266.9 25.13 88.43 56.31 176.3 93.47 263.3 32.23 75.46 68.81 150.1 110.6 223.8z"/><path transform="matrix(.1333 0 0 -.1333 0 716.5)" d="m8794 8431c-2.048-44.77-0.4592-91.43 4.615-139.9 8.05-76.9 26.8-158 57.19-243 30.39-84.9 71.81-173.2 123.1-264.3 51.31-91.17 111.3-185 178.3-281 66.96-96.02 139.3-193.9 214.8-293.5 75.59-99.57 152.2-199.7 229.8-303 77.53-103.2 152.8-206.9 224.1-310.1 71.76-103.8 140.4-207.5 205.3-311.9 46.41-74.48 90.02-148.2 129.5-221.1v-1740c-53.54-105.4-115.4-212.6-186.3-321.7-113.8-175.3-253-354.9-424.6-543.3-171.5-188.3-380.3-383.5-650-594.7-269.4-211-621.4-439.5-1075-666.2s-974.7-441.1-1519-587.2c-325.9-87.45-657.5-160.3-975.7-213.6h-2200l0.5957 99.41c65.95 12.6 135.6 25.65 209.4 39.11 170.2 31.02 365.6 63.85 587.4 101.7 222.1 37.85 469.4 84.06 737.8 142.3 268.5 58.29 551.4 132 834.7 228.3 429.4 145.9 848.6 333.4 1242 552.4 392.9 219 737.3 456.2 1025 695s519.5 472.5 699.6 698.3c180.2 225.9 312.2 443.3 401.9 653.1 79.73 186.5 124.2 366.5 138.4 542.1 14.25 175.7-0.615 347.4-45.62 515.5-45.01 168.1-120.3 332.5-223.9 494.2-103.6 161.6-232.5 320.9-379.1 474.7-146.5 153.7-293.9 301-430.9 444.3s-252 285-340.3 426.7c-66.21 106.3-111.6 213.4-140.1 320.2-28.57 106.8-45.99 211.3-51.6 313.3-5.521 100.6 1.546 199 19.86 294.2zm-1356-7035c77.71 27 154 54.97 228.7 83.81 351.1 135 651 280 900.8 422.4s456 276.2 617.7 395.1c338.2 248.7 610.3 490.3 823.1 715.8 52.46 55.54 103.3 111 152.4 166.1v-190c-47.79-51.89-96.65-103.6-146.5-154.6-117.6-120.3-253.9-247.8-399.8-371.5-145.7-123.5-310.8-249.6-505.6-381.6-193.9-131.4-428.4-273.6-712-421.2-173.9-90.53-368.7-179.9-583.3-264.3zm-233 7035c-9.718-33.8-18.27-68.12-25.58-103-18.37-87.52-28.58-177.4-29.12-268.6-0.55-91.18 7.894-183.6 24.32-277.5 16.43-93.91 41.41-189 80.67-282.7 39.27-93.71 92.31-186 157.6-277.3 65.28-91.29 141.3-182.1 224.4-273.5 97.04-106.7 196.8-214.9 294.7-325.6 97.92-110.7 190.7-224.4 274.5-341.3s155.4-236.3 213.9-359.4 100.5-248.2 125.1-375.8c24.59-127.6 31.73-257.5 21.47-389.6-10.25-132.1-38.37-267-85.17-405.1-46.76-138.1-112.6-279.9-198.4-425.8s-192.3-295.9-320.6-449.5-278.7-309.7-451.1-466.9-367.3-314.2-583.6-467.7c-216.4-153.4-452.2-299.5-702.6-432.9-250.4-133.5-510.1-250.7-776.1-350.3-226.5-84.73-453.5-156.1-673.9-217s-430.2-112.5-627.1-156c-197-43.5-376.4-81.95-539.1-116.2-162.7-34.26-310.2-65.46-440.5-95.29-12.66-2.899-25.2-5.772-37.64-8.619l1.289 215.5c102.2 35.24 211.1 73.49 326.2 115.3 209.7 76.13 442.4 162 685.9 261 152.4 61.74 308.6 131.6 465.8 208.7 157.2 77.11 313.3 161.6 465.5 253 152.3 91.48 299.9 190 441.2 296.1s274 219.1 396.5 337.8 233.3 241.6 331.3 367.3 182.6 253 253.1 380.6c70.54 127.6 126.9 254.7 168.9 380.4 42.04 125.7 69.58 249.4 80.57 370.2 17.54 192.9 2.584 377-44.48 550.1-47.07 173.1-120.7 336-211.5 490.4-90.81 154.4-189.5 303.3-283.7 450.9-94.21 147.6-175.8 297.5-241.8 452.2-32.94 77.35-54.12 159.3-72.13 240.8-18.02 81.58-32.05 163.4-44.49 244.6 0.74 173.1 12.69 345.4 45.61 517.9 24.7 129.4 63.53 258.7 115 387.3 46.66 116.5 103.9 232.1 171.3 345.7zm-3749 0c-15.8-51.99-31.64-105.6-47.58-160.9-78.57-272.8-159.9-595.4-242.6-960.1l1.043 174.3c23.74 109.8 47.27 215.5 70.67 316.4 54.64 235.6 107.1 444.5 158.3 630.3zm6705-644.2c-15.1 45.04-27.62 88.42-37.41 130.1-14.7 62.67-22.6 121.1-23.6 175-1 53.95 4.796 103.4 20.1 146.6 11.12 31.37 24.58 60.66 40.91 87.5z"/><path transform="matrix(.1333 0 0 -.1333 0 716.5)" d="m8193 8431c-2.402-58 0.5335-117.9 8.361-179.5 10.69-84.28 29.88-171.8 61.94-261.7 32.05-89.89 77.36-181.9 135.2-276.1 57.84-94.22 126.6-190.3 205.5-289.5 78.89-99.16 163.7-199.4 251.6-300.4 87.88-101 176.8-202.7 264.5-305s172.6-205.1 252.9-308.7c80.37-103.6 154-208.1 216.5-313 62.46-104.9 116.7-210.6 161-316.9 44.24-106.4 77.41-211.8 99.67-316.3s33.59-208.5 33.97-312.6-10.14-208.5-33.58-313.9c-39.05-175.6-101.8-353.2-190.8-534.7-88.99-181.6-206.3-368.2-354.5-559.1s-333-388.2-573.8-601c-240.7-212.7-550-438.8-940.2-664.9s-832.3-450.5-1328-627.2c-495.9-176.6-975.2-311.8-1456-394.8-287-49.6-552.2-81.26-792.1-104.2-235-22.46-442.3-40.82-626.2-55.41h-458.7l0.066 11.04c51.96 7.185 106.3 14.52 163.1 21.96 287.6 37.68 637.9 99.42 1101 154.4 471.7 56.02 999.5 168.8 1524 331.3 262.4 81.25 527.5 185.3 781.7 301.7s496.1 242.4 718.6 373.9c222.5 131.4 420.2 266.4 601.8 398.2s340.5 262 479.7 388.9 256.3 249.6 356.8 368.4 187.2 235.1 259.2 346.9c72.04 111.8 134.3 223.6 186.4 334.4 52.11 110.8 93.87 220.4 124.9 328.8s51.21 215.7 60.6 322.2 8.03 212.7-4 318.9c-12.01 106.1-34.35 212-66.64 316.8s-74.34 208.3-127 310.8c-52.64 102.5-115.8 204.2-189.1 305-73.19 100.9-155.7 201.1-246.2 300.7s-185.3 198.7-280 297.2c-94.75 98.47-184.7 193.9-269.3 287.9s-159.5 186.6-224.9 277.7c-65.4 91.08-119.5 181.1-161.4 270.4-41.86 89.24-71.16 177.6-90.48 264.4-19.32 86.77-31.17 171.2-34.46 253.4-2.023 50.71-0.4334 100.6 5 149.5zm-2239-7035c60.98 12.49 122.6 25.5 184.8 38.94 351.3 75.83 682.9 195.6 1018 316.4 595.5 214.8 1083 459.7 1478 699.9 337.4 232.2 606.4 444.3 820.7 644.5s386.2 389.6 526.9 571.4c65.14 84.16 124.6 166.7 178.8 247.6v-90.33c-57.14-81.63-120.6-165.8-188.9-250.8-84.91-105.6-179.6-213.4-286.6-324.3-106.8-110.8-227.9-225.5-360-338.2s-298-244.2-485.5-375.6c-187.5-131.3-411-270-675.7-411.6-264.7-141.5-570.8-278.8-907.1-405.8s-694.1-235.5-1055-315.1c-10.57-2.327-21.12-4.64-31.67-6.938zm946.2 7035c-11.88-30.61-23.04-61.58-33.47-92.91-29.88-89.76-52.36-182.5-66.75-277.6-14.41-95.25-19.89-191.7-15.72-288.9 4.18-97.1 17.68-194.4 40.07-291.9 22.38-97.46 58.34-192.7 109.1-284.7 50.82-92 114.9-181.3 186.6-269.8 71.73-88.52 148.5-177.1 227.4-266.6 78.93-89.52 157.7-180.5 233.5-273.5 75.82-92.96 146.7-188.4 210.3-286.5 63.65-98.12 118.5-199.1 163.1-302.9 44.54-103.8 77.71-210.6 98.41-320.4 20.71-109.8 28.23-222.5 22.61-337.6-5.63-115.2-24.87-232.8-58.31-353.2-33.43-120.4-81.22-243.4-143.8-369.4-62.54-125.9-140.2-254.7-233.4-386-93.19-131.3-202.3-264.6-327.1-398.9s-265.2-268.4-420.2-400.5c-154.9-132.1-323.9-260.7-505.4-383.6s-373.6-237.9-575.7-342.6-405.9-196.9-611.2-277.2c-204.8-80.63-407.8-151.2-605.2-212.6-197.6-61.48-385.6-115.1-562.6-161.5-177-46.39-340.9-87.34-490.2-124.9-149.3-37.52-284.7-72.27-408.6-104.1-0.7595-0.1955-1.519-0.3907-2.277-0.5859l0.2402 40.15c69.54 19.5 143.3 40.22 220.5 62.12 130 36.87 271.5 78.18 428 121 156.2 42.79 322 91.98 497.8 147.2 175.8 55.23 358.5 118.3 547.5 191.2 315.2 121.6 627 265.4 927.3 438.7s579.4 371 826.4 583.5c247.6 212.9 457.5 433.8 625.6 655.1s293.6 438.8 377.3 649.9c83.69 211 126.2 414.6 129.1 610.5 2.87 195.7-32.82 382.4-99.76 560.7-40.15 107-93.55 209.6-156 308.9s-132.3 195.4-206.9 288.8c-74.63 93.44-151.7 184.7-228.3 274.7-76.52 89.94-150 179.3-217.5 269.2-67.47 89.92-126.6 181.2-182.9 272.2-38.19 97.14-69.51 195.3-90.65 294.5-21.13 99.15-33.05 198.6-34.49 298.7-1.43 100.1 7.259 200.4 26.88 299.8 19.61 99.39 43.1 196.3 76.67 291.2 17.96 50.76 37.96 100.9 59.98 150.3zm2445 0c-7.008-25.51-12.22-52.24-15.71-80.14-7.35-58.66-6.284-122.3 4.176-190.5 10.47-68.21 30.28-140.8 58.83-217.3 28.54-76.51 64.91-156.5 108.5-239.8s93.57-169.6 149.4-259.3c55.86-89.65 113.6-180.8 172.5-273.2 58.91-92.39 117.8-185.2 176-279.5 55.08-89.23 108.5-177.5 161.5-266.9v-152.3c-18.2 30.03-36.68 60.12-55.31 90.22-50.9 82.25-102.4 162.8-155.4 244.1-52.94 81.36-106.7 161.2-161.5 241.5-54.77 80.25-109.2 159.8-161.9 238.2-52.7 78.35-102.6 154.4-146.2 228.3-87.24 147.8-163.4 289.5-218.8 422.3-41.58 99.66-66.93 192.8-76.64 279-8.787 78.02-5.678 149.9 7.584 215.4z"/><path transform="matrix(.1333 0 0 -.1333 0 716.5)" d="m3950 8431c-122-220.5-244.7-471.2-349.6-736.4-128.2-323.8-240.2-669.7-341.1-1020-34.42-119.6-67.46-237.7-99.29-353.5l0.2637 43.86c55.74 204.5 114.6 412.6 177 619.8 88.9 294.1 172.9 575.4 289.2 831.3 100.7 221.5 202.6 426.9 304.8 615.3z"/><path transform="matrix(.1333 0 0 -.1333 0 716.5)" d="m6856 8431c-39.54-106.4-69.08-216.8-86.81-330.7-24.11-155-22.79-313.2 5.176-472.2 27.97-159 83.56-317.6 180.4-468.1 96.85-150.5 222.7-296.5 359.5-444.1s273.7-299.6 397.5-458.7 225.9-326.3 297.7-502c71.86-175.7 108.7-360.1 106.7-552.5-1.96-192.6-44.14-392.6-129.2-601.1-85.01-208.5-214.6-426.2-392.1-651.7-99.84-126.9-213.3-255.1-339.7-383.2s-265.9-255.2-418.1-378.2c-304.2-245.7-649.6-474.8-1020-669.1-370.6-194.3-750.3-346.8-1122-467.3-364.2-118-701.5-209.3-992.5-280.6-207.2-50.74-380.4-96.64-532.3-137.1-12.77-3.403-25.43-6.77-37.99-10.1l0.2109 35.3c104.3 29.08 216.4 60.45 336.9 94.27 168.7 47.34 356 99.82 560.6 159.7 204.6 59.75 422.4 130.1 649.8 211.9 227.4 81.9 463.2 178.8 691 290.1 341.7 166.9 672.8 367.3 973.6 593.8s561.5 469.3 781.9 718c110.2 124.4 203.5 248.3 283.9 370.9 80.41 122.7 148 243.8 202.9 362.9s97.16 236.2 126.9 351.2c29.7 115 47.08 227.8 49.69 337.8 4.64 195.4-25.82 381.5-91.43 557.1-65.62 175.6-160.9 341.3-276.5 498.2s-242.3 306.8-367 452.8c-124.7 146.1-236.7 291.7-345.3 434.8-61.14 158.3-107.8 317.5-129.9 477-22.08 159.5-17.51 319.7 11.6 477.1 21.83 118 50.1 232 93.32 342.9 5.367 13.77 10.89 27.47 16.56 41.12zm-2733 0c-165.7-265.6-313.7-555.7-452.9-872.2-207.5-471.7-342-956-469-1398-14.8-51.51-29.23-102-43.33-151.6l1.83 305.6c44.48 161.2 91.21 326.5 140.6 493.7 105.4 356.7 209.8 701.8 352.9 1024 96.11 216.2 195.3 415.7 297.7 599.2zm-573.1 0c-104.1-298.1-196.7-633-297.7-1024-29.8-115.4-59.16-233.7-88.2-354l0.9707 162.2c32.5 139.7 65.19 275.7 98.29 406.3 77.49 305.8 154 573.4 227 809.5z"/><path transform="matrix(.1333 0 0 -.1333 0 716.5)" d="m3850 8431c-21.02-39.08-42.12-78.74-63.28-119-147.4-327.3-283.2-679.7-403.7-1064-79.54-254.4-153.3-513.5-222.6-769.3l0.2773 46.23c70.33 262.3 145.2 526.4 225.6 783.6 118 376.9 249.6 719 390.7 1035 15.43 29.71 30.79 59.11 46.1 88.18z"/><path transform="matrix(.1333 0 0 -.1333 0 716.5)" d="m3863 8431c-15.92-29.05-31.86-58.4-47.82-88.05-148.1-319.3-285.2-663.9-406.5-1042-89.37-278.3-171.5-563.9-248-846.2l0.2891 48.08c80.88 301.4 168 604.8 263.2 897 121.5 373 257.6 709.1 402.4 1018 2.371 4.377 4.741 8.746 7.11 13.11z"/><path transform="matrix(.1333 0 0 -.1333 0 716.5)" d="m3446 8431c-76.07-254.9-154.8-554.4-236.7-903.2-14.52-61.85-29-124.9-43.49-188.9l1.26 210.3c0.2906 1.344 0.5806 2.688 0.8711 4.031 73.6 340.2 142.7 631.5 206.8 877.7zm-88.1 0c-13.16-52.22-26.5-106.1-40.16-161.8-48.04-196-98.19-418.2-150.3-666.8l2.479 413.7c28.6 151.6 55.77 289.9 81.33 414.9z"/><path transform="matrix(.1333 0 0 -.1333 0 716.5)" d="m4236 8431c-261-443.7-500.4-929.5-672.3-1410-172.3-480.9-303.9-919.5-407.4-1283l0.5313 88.88c14.6 51.16 29.58 103.6 44.96 157.3 100.9 352.3 224.2 753.4 378.2 1172s362.4 838.2 585.6 1194c16.96 27.05 34.12 53.87 51.46 80.44zm-891.5 0c-54.68-224.2-114.1-488.2-176.9-791.1l1.476 246.4c39.84 201.3 77.81 382.4 114.2 544.7z"/><path transform="matrix(.1333 0 0 -.1333 0 716.5)" d="m9363 1396c222.1 149.5 421.7 299.6 613.4 465.3 61.95 53.53 123.4 107.6 183.9 161.4v-48.99c-107.5-92.86-215-182.7-317.5-263.8-118.2-93.49-264.1-201.3-427.8-313.9z"/><path transform="matrix(.1333 0 0 -.1333 0 716.5)" d="m8481 1396c75.92 40.63 149.1 81.05 219.4 121 259.4 147.4 480.1 287.9 650.7 407.7 303.6 213.1 594.6 464.3 809.6 678.1v-66.51c-169.3-166.9-347.3-329.6-529.9-481-276.3-212.2-593.8-424.4-1014-659.3z"/><path transform="matrix(.1333 0 0 -.1333 0 716.5)" d="m4176 8431c-121.9-189.9-237-393.7-343.7-610.3-204.3-428.7-367.9-884-499.7-1317-64.39-212.5-122.8-412-176.2-597.3l0.2773 46.38c11 38.76 22.19 78.15 33.58 118.2 117.5 412.9 237.3 873 432.6 1334 157.8 372.8 323.8 713.5 524.4 1026zm-734.3 0c-88.62-298.5-181.3-661.3-276.6-1088l1.121 187.3c63.03 301.3 122.8 560.3 179.5 782.3 10.27 40.22 20.41 79.51 30.49 117.9z"/><path transform="matrix(.1333 0 0 -.1333 0 716.5)" d="m9420 1396c146.9 99.64 274.6 190.9 372.7 265.4 116.4 88.33 241.2 190.6 367.5 298.4v-53.13c-20.58-17.53-41.35-35.15-62.31-52.85-193.9-163.7-383.7-313.3-587.9-457.8z"/><path transform="matrix(.1333 0 0 -.1333 0 716.5)" d="m9690 1396c30.18 21.86 60.04 43.76 89.63 65.69 126.7 93.91 255.7 196.3 380.9 299.9v-56.54c-130.9-106.6-265.1-211.3-396.3-309.1z"/><path transform="matrix(.1333 0 0 -.1333 0 716.5)" d="m4604 8431c-87.63-117.5-169.4-237.3-243.7-358-180.8-293.8-340-603.9-459.6-887.6-118.1-283.7-208.6-541.8-278.6-768.8-69.99-227.1-125.7-426-170.2-598.4-44.54-172.4-79.64-320.8-107.3-449.9-27.65-129.1-49.59-243.4-67.57-347.6s-31.54-198-40.04-281c-8.49-82.96-12.53-157.3-12.81-225.2-0.3-67.94 2.664-131.1 8.244-191.1 5.58-60.03 13.15-117.9 21.29-175.4 8.13-57.42 15.96-115.6 22.22-175.9 6.27-60.34 10.15-123.5 11.65-188.2 1.5-64.72 3.076-127.4 4.756-187.8 1.69-60.47 2.979-119.3 3.299-176.7 0.32-57.45-1.002-114-4.662-170.1-3.67-56.11-10.23-112.1-20.21-168-9.98-55.99-23.53-111.8-41.6-167.2-23.72-72.74-53.74-144.6-90.96-215.3l0.6093 101.5c14.85 38.43 27.59 77.08 38.28 115.9 23.94 86.9 38.72 174.3 46.76 262.1 4.01 43.86 5.987 87.93 6.797 132.5 0.8 44.54 0.8736 89.71 0.4336 135.8s-1.189 93.07-1.879 141.4c-0.69 48.38-0.9727 98.54-1.973 149-1 50.44-3.754 99.28-7.934 146.5-4.18 47.18-9.449 92.99-15.11 138.1-6.79 54.15-13.71 107.8-19.54 162.3-5.82 54.43-9.918 110.5-11.68 169.7s-0.7342 122.6 3.676 192.1c4.4 69.45 12.7 146.6 23.95 230 13.48 88.69 28.71 181.7 47.64 284.2 18.94 102.5 42.95 218.2 73.79 352.2 30.85 134 69.87 290 118.9 471.8 49.05 181.8 109.8 391.3 184.1 623.5 78.72 245.8 177.5 514.9 304.7 804.7 128.1 289.9 271.6 583.7 472.9 880.7 54.86 80.96 111.7 160.5 170.4 238.4z"/><path transform="matrix(.1333 0 0 -.1333 0 716.5)" d="m7398 1396c61.23 21.57 121.6 43.79 181 66.59 529.8 200.6 953 418.6 1274 621.7 321.5 203.2 568.9 386.7 781.3 564.3 196.2 178.1 370.2 352.5 525.3 526.6v-134.2c-138.7-151.3-293.8-305.6-451.8-451.6-224.8-195.4-490.3-390.1-830-602.3-310.2-193.8-714.9-400.4-1220-591.2zm2762 6316c-22.79 57.95-41.63 113.2-56.1 165.9-18.8 68.03-30.31 131.4-34.31 190.1-4 58.61-0.292 112.2 11.11 160.6 11.3 48.42 29.78 91.72 56.68 128.3 7.192 9.816 14.74 19.31 22.62 28.5z"/><path transform="matrix(.1333 0 0 -.1333 0 716.5)" d="m3164 7108 0.045 7.557c35.32 142.6 70.72 281.4 106.1 418.6-35.52-137.8-70.91-280.2-106.2-426.2zm106.2 426.2c9.229 35.82 18.16 80.58 27.41 115.6 0.8985 3.377 1.739 5.025 2.637 8.392-10.08-37.98-19.98-85-30.04-124zm259.7 897c-75.65-223.7-151.7-480.9-229.6-773 14.75 55.56 29.15 128.1 43.94 181.4 60.89 218.9 121.9 416.1 180.5 591.7z"/><path transform="matrix(.1333 0 0 -.1333 0 716.5)" d="m7744 8431c-0.048-0.3691-0.096-0.7382-0.1439-1.107-11.46-88.63-10.76-180.1 0.2969-274.6 11.05-94.46 31.09-191.8 63.52-291.1 32.43-99.25 80.51-199.4 143.6-300.4 63.08-101 139.8-203.1 227.8-306.8s185.4-209.7 289-318.1c103.6-108.6 209.4-219.3 308-330.6 98.62-111.4 187-223.5 263.5-336.5 76.45-113 140-226.9 189.8-342.1 49.86-115.2 86.2-232 109.8-350.7 23.67-118.8 34.42-238.6 31.69-359.1s-19.2-241.7-49.54-363.9-74.54-245.7-132.5-371.1c-57.94-125.4-129.1-251.9-215.7-381.1-86.54-129.2-190.7-262.3-314.8-399.4-124.1-137.2-270.6-278.6-442.6-423.6-171.1-145.4-367.9-293.7-590.4-442.4-222.6-148.7-470.4-294.1-736.5-431-266-136.9-547.9-261.2-834.8-367.3-286.9-106.2-573.4-192-858.8-259-283.9-66.6-554.8-116.5-803.6-155.3-248.7-38.79-471.3-70.11-669.6-95.51-197.4-26.17-369.4-50.17-519.2-73.29-24.63-3.8-48.76-7.567-72.41-11.3l0.2695 45.11c121.6 22.39 258.7 45.32 411.4 69.82 169.9 27.23 361.3 57.58 580.1 93.62 208.6 34.39 437.3 80.97 688.1 133.4 250.8 52.48 510.4 120.2 771.3 203.8 263.1 84.28 524.7 185.6 780.3 302.2s501.3 245.2 731.2 381.3c230 136.2 438.5 276.3 625.1 417.4 186.6 141 350.1 281.4 495.4 418 145.5 136.8 270.1 271 375.8 402.1 105.8 131.1 194.4 259.1 267.4 384 72.98 125 131.8 248 175.4 367.8s74.63 239.1 92.76 357.4c18.14 118.2 23.39 235.1 16.18 350.5-7.2 115.4-26.55 229.5-59.19 342.2s-78.68 224-137.8 334.2c-59.07 110.2-130.7 219.6-213.8 328.3-83.13 108.7-176.4 216.8-276.4 322.8-99.72 106-201.8 209.3-298.3 310.5-96.51 101.2-185.1 200.8-263.1 299.6-78.02 98.75-143.5 197.2-194.4 295.6-50.94 98.49-86.36 196.9-108.5 294.2-22.15 97.36-35.35 192.3-39.03 284.7-3.359 84.39 1.846 166.8 15.62 246.9z"/><path transform="matrix(.1333 0 0 -.1333 0 716.5)" d="m7170 8431c-18.61-62.24-33.01-126-43.05-191.3-13.64-88.67-18.08-178.8-12.97-270 5.12-91.19 19.02-183.6 41-277.2 21.98-93.69 55.94-186.9 104.3-278.4 48.4-91.48 110.3-181.5 183.8-270.7s157.1-178 244.8-268.1c87.65-90.04 176.4-181.9 263.5-276.2 87.05-94.21 170-190.8 246.4-289.7 76.47-98.97 144.9-200.4 203.4-303.9 58.52-103.5 105.9-208.8 140.6-315.6s56.52-215.4 65.65-325.5c9.14-110.2 5.719-221.8-10.62-335.1-16.33-113.3-45.88-228.7-88.97-346.5s-100.1-238.1-171.6-361.3c-71.44-123.2-157.8-249.2-259.4-377.8-101.7-128.6-218.9-259.3-352.3-391.1s-282.2-264.6-451.1-397.2c-168.9-132.5-351.2-262.9-546.8-388.1-195.6-125.1-402.7-242.8-618.4-350.1s-435.4-201.9-656.2-283.2c-219.8-80.89-440.3-149.4-649.9-205.1-419.7-111.4-801.6-195.1-1123-257.5-209.1-40.56-389.1-80.02-547.6-115.7l0.2129 35.51c163.1 39.28 354.3 82.49 575.5 128.4 166.9 34.68 355.8 77.2 561.2 126.4s421 110.2 653.2 179.5c348.3 104 693.2 236.4 1031 401.6 337.9 165.2 655.9 357.3 940.8 564.6 285 207.3 531.6 421.2 738.2 635.2 206.6 213.9 372.6 424.2 502.3 629.4 86.42 136.7 152.7 269.6 202.3 399.3 49.55 129.7 82.69 256.5 99.7 380.8s18.29 246.4 4.15 366.6c-14.12 120-43.91 238-88.43 353.5-44.54 115.5-102.7 228.3-172.7 338.3s-150 217-237.6 321-180.2 205.4-274.4 304.4c-94.18 99.08-187 196.5-273.7 293.4-86.74 96.89-161.3 194.6-220.2 294.2-58.92 99.59-100.6 201.6-126.8 305.1-26.19 103.4-42.32 205.7-47.76 306.8-5.45 101.1 0.8447 201.3 17.55 299.5 12.34 72.51 29.98 143.2 52.29 212z"/><path transform="matrix(.1333 0 0 -.1333 0 716.5)" d="m6146 1396c52.21 11.54 104.6 23.49 157.1 35.8 380 89.17 744.4 218.5 1099 353.6 354.2 135.1 663.4 285.1 930.1 435.8s485.4 296 667 431.8 334.6 263.4 469.7 388.7 256 249.6 358.7 366.1c102.6 116.4 194.8 232 276 344.4 19.67 27.22 38.81 54.29 57.41 81.19v-98.48c-116.5-161.3-259.9-333.1-427.6-508.6-176.9-185.2-394.4-380.5-667.9-587.6-274-207.6-637.6-436.6-1115-667.3-238.4-115.2-502-222.7-778.4-323.1-248.7-90.38-508.8-175.4-775.1-252.2zm3238 7035c-8.924-29.81-15.34-61.42-19.32-94.75-7.95-66.57-4.355-139.9 11.63-219.5 15.98-79.61 43.86-165 82.67-255.5 38.82-90.52 87.18-185.3 144.2-285.1 50.7-88.77 106.9-180.2 166.2-273.3 59.29-93.15 120.1-187.6 181.3-283 61.14-95.36 124.4-193.2 181.4-287.8 9.547-15.83 19.12-31.71 28.72-47.64v-132.5c-23.26 37.93-46.86 75.84-70.71 113.7-33.2 52.82-66.8 105.5-101.1 158.3-34.29 52.86-68.94 105.2-104 157.6-35.03 52.39-70.29 104.6-105.5 156.6-35.26 51.99-70.26 103.7-104.6 154.9-34.31 51.19-67.71 101.7-98.51 151.1-61.57 98.83-119.4 195.1-169.1 287.6-49.66 92.56-89.92 181.1-119.6 265.2-29.65 84.09-47.97 163.3-54.33 237-6.152 71.15-2.078 136.9 10.21 197z"/><path transform="matrix(.1333 0 0 -.1333 0 716.5)" d="m3812 8431c-126.4-260-253.1-564.1-364.4-898.3-103.6-311-198.5-640.5-286.3-970.8l0.1679 27.86c104.9 402 220.4 796.4 347.9 1154 89.36 250.6 189.2 482.5 287.5 687.4z"/><path transform="matrix(.1333 0 0 -.1333 0 716.5)" d="m3233 8431c-1.124-5.166-2.234-10.39-3.33-15.68-19.66-94.97-39.43-195.7-59.53-302.8l0.2227 37c12 64.34 23.88 126.3 35.67 186.1 6.846 34.55 14.71 65.55 22.84 95.38z"/><path transform="matrix(.1333 0 0 -.1333 0 716.5)" d="m7884 1396c375.8 148.8 690 309.3 944 464.2 368.5 224.6 649.2 434.4 873.1 629.7 163.3 142.4 320.4 294.1 459.1 440.6v-43.81c-47.71-51.27-95.89-102.1-144.3-151.9-127.7-126.8-278.4-264.8-427.4-387.8-148.9-122.8-316.8-247.7-515.4-379.3-198.5-131.6-438.5-273.1-726.8-418.2-103.4-52.06-213.8-103.5-330.9-153.4zm-4621 7035c-25.61-116.8-50.84-242.1-76.74-377.7-5.662-29.66-11.38-59.87-17.15-90.62l1.465 244.7c14.48 77.89 28.87 152.4 43.28 223.7z"/><path transform="matrix(.1333 0 0 -.1333 0 716.5)" d="m3533 8431c-107.7-326.7-223.1-734.5-341.7-1211-9.109-36.62-18.17-73.53-27.19-110.7l0.1992 33.3c11.5 48.54 23.05 96.72 34.68 144.5 101.6 417.3 202.6 777.7 301.5 1076 7.914 23.86 15.7 46.39 23.41 67.95z"/><path transform="matrix(.1333 0 0 -.1333 0 716.5)" d="m3163 6944 0.1895 31.59c28.09 114.8 56.57 228.1 85.59 339.2 16.54 63.33 33.9 105.5 50.57 166.3-45.81-172-90.76-350.3-136.3-537.1zm444.8 1487c-19.65-49.65-39.65-100.8-60.08-153.6-44.19-114.1-82.57-249.7-122-380.9 41.7 139.6 82.86 294.6 125.2 411.5 15.21 42 30.38 83 45.5 123z"/><path transform="matrix(.1333 0 0 -.1333 0 716.5)" d="m6199 8431c-36.84-64.19-70.25-129.1-99.8-194.4-73.32-162.1-128-326.2-162.3-491.1-34.32-164.9-47.79-330.1-36.22-491.2 11.56-161 45.8-317.6 94.49-472.5 53.58-154.3 128.5-301.3 213.3-446.6 92.96-143.5 188.5-288.7 278.8-439.1 90.33-150.3 166.3-308.8 220.6-477.1 33.91-105.2 55.47-214.4 65-327.1 9.54-112.7 6.253-228.8-10.22-347.8-16.49-119-46.05-240.2-88.9-362.9-42.84-122.7-98.76-246.5-167.6-370.5-68.81-124.1-150.3-247.6-243.8-369.4-93.53-121.8-198.5-241-313.8-356s-240-224.9-372.5-328.6c-132.6-103.8-271.4-200.5-416.8-290.7-145-89.94-292.4-173.4-440.7-250.2-148.3-76.81-296.3-146.9-442.4-210.4-145.8-63.48-288.4-120.8-424.6-173.4-136.2-52.56-267.4-100.5-389.7-146.5-114.9-41.33-225.6-80.25-330-116.2l0.3066 51.11c95.89 35.98 196.9 74.83 302.5 116.8 139.1 55.26 285 116.4 436.2 183.4 126.4 56.01 257.3 116.9 389.8 183.4 132.5 66.55 265.4 139 396.7 217.3 131.3 78.35 259.1 162.5 382.6 252 123.4 89.54 241.1 185.2 356.5 285.6 115.3 100.4 220.2 206 315.8 316 95.69 110 181.4 223.3 256.4 338.9 74.99 115.6 138.9 232.8 191.3 350.4 52.35 117.7 92.92 235.2 121.3 351.8 28.44 116.6 44.89 231.8 49.1 344.3s-3.434 222-21.93 328.4c-18.51 106.3-46.76 209.5-83.1 309.7s-79.19 197.8-126.1 293.4c-75.12 152.9-154.8 300.9-230.2 447.7-75.44 146.8-134 297.2-173.3 456.5-37.63 158.5-62.21 319.5-69.57 483.6s6.088 331.6 40.41 501c34.31 169.5 91.1 341 171 513.5 52.45 113.3 114.7 226 185.1 337zm-1953 0c-91.53-135.3-177.7-275.1-259.5-416.6-143.2-280-269.9-560.6-375-845.4-140.1-379.8-253.7-739.8-347.7-1061-38.73-132.2-74.59-256.7-108-373.7l1.609 268.5c40.03 139.8 82.39 286.8 127.3 440.6 95.39 326.9 209.8 676.3 345.8 1018 136 341.8 306 670.7 479.1 952.5 3.397 5.529 6.802 11.05 10.21 16.55zm-989.3 0c-10.55-47.89-20.87-96.92-31.12-147.2-18.35-90.11-37.04-185.9-56.21-287.9l2.104 351.4c5.257 28.35 10.52 56.24 15.79 83.67z"/><path transform="matrix(.1333 0 0 -.1333 0 716.5)" d="m3164 7084 0.1484 24.95c15.01 62.98 30.11 125.4 45.35 187.1 19.76 80 39.26 131.4 59 207.2-35.23-135.4-70.02-275.6-104.5-419.2zm104.5 419.2c2.244 8.625 4.32 19.16 6.568 27.74 21.82 83.3 43.18 157.8 64.34 229.6-23.59-81.68-47.21-166.4-70.91-257.4zm177.5 626.3c21.05 77.98 42.1 156.5 62.88 218.1 2.411 7.154 4.822 14.27 7.23 21.37-23.64-71.66-46.96-155.6-70.11-239.5zm91.3 301.3c-7.049-20.35-14.11-40.95-21.19-61.8 6.858 20.79 13.75 41.39 20.69 61.8z"/><path transform="matrix(.1333 0 0 -.1333 0 716.5)" d="m7801 1396c51.54 20.69 102.1 41.64 151.5 62.83 306.5 131.3 574.8 268.3 796.9 401.8 443.6 266.7 775.5 520 1024 745.3 138.3 125.2 266.8 253 386.6 380.4v-517.4c-78.63-76.93-159.1-153.6-240.3-228.4-172.2-158.7-369.4-317.6-582.1-465.7-161.2-112.2-363.7-243.7-602-378.8zm-290.9 7035c-14.76-91.61-18.42-186-10.71-282.7 8.1-101.7 27.68-206.2 59.68-315.1 30.77-104.7 79.89-211.8 147.4-318.8s151.6-214.3 249.2-322.6c97.68-108.4 202-218.3 308.9-331.6 165.7-152.1 313.6-309.4 441.6-469.4s230.6-321.9 304.7-486.3c74.07-164.4 121.1-332.7 136.1-503.3 15.04-170.6 3.342-344.9-37.99-522.9-41.31-177.9-112.8-359.3-218.9-547.3-106.1-188.1-250.1-384.5-441.1-590.2-214.8-231.4-485.6-470.9-817.9-713.7-332.2-242.7-722.5-477.5-1153-684-430.2-206.6-877.7-368.8-1319-482.5-440.2-114.6-846.3-191.6-1191-245.9-246.4-38.85-446.2-72.12-621.2-101.7-76.72-12.94-148.9-25.52-217-37.69l0.4981 83.38c109.1 24.24 228.2 50.05 358.8 77.54 178.2 37.47 378.4 79.78 603.4 127.7 224.7 47.82 462.8 110.9 724.3 180.1s535.4 160.2 796.3 267c392 160.5 777.7 359.9 1129 586.4 351.6 226.5 655.6 467.1 911.2 707.1s459.3 476.4 613.6 704.8 261.4 447.7 325.2 659.7c56.77 188.4 76.14 369.9 61.9 546.4-14.23 176.2-61.85 347.5-141.5 514.4-79.39 166.6-186.5 328.3-312.7 483.4s-264.4 303.8-403.8 447.2-266.5 284.2-366.6 426c-100.1 141.9-167.7 286.6-206.3 432.7-28.92 109.6-44.44 217.4-47.64 323.4-3.21 106 6.972 210.2 28.5 311 5.582 26.15 11.89 51.99 18.87 77.53z"/><path transform="matrix(.1333 0 0 -.1333 0 716.5)" d="m6459 1396c71.64 18.08 143.1 37.15 214.4 57.09 346.8 97.12 686.1 211.6 1011 336.4 579.5 276.1 1039 548.2 1367 791 327.8 242.3 585.5 476 778.9 683.5 123.5 132.5 233.2 262.9 330.4 390.1v-254.2c-71.88-86.49-148.8-174.1-231.4-262.6-118.3-126.8-252.1-255-406.5-388-154.1-132.8-331.5-269.3-546.8-417s-480-307.1-804.5-469.4-707.7-316-1133-446.4c-22.44-6.877-44.92-13.66-67.43-20.36zm3415 7035c-22.35-32.53-40.21-68.27-54.79-106.6-17.35-45.66-25.16-97.61-24.97-154.5s8.632-118.6 25.08-185c16.45-66.36 40.25-136.9 70.63-211.1 30.37-74.18 66.79-151.7 107.7-232 40.9-80.31 84.82-163 131.5-247.7 10.32-18.74 20.76-37.56 31.3-56.45v-362.6c-17.32 29.23-34.74 58.41-52.31 87.58-53.1 88.25-106.2 175.9-158.3 262.5-52.02 86.51-102.3 171.6-150.1 254.8-47.7 83.18-91.13 164.1-129 242.3-37.82 78.09-69.37 153-93.68 224.2-24.3 71.21-40.6 138.4-48.36 201-7.75 62.66-7.247 121 5.203 171.9 9.759 39.9 22.88 77.22 39.66 111.8z"/><path transform="matrix(.1333 0 0 -.1333 0 716.5)" d="m8683 8431c-2.227-78.93 5.616-163.1 25.27-252.2 20.33-92.14 55.82-189 105.5-289.8 49.74-100.8 112.4-205.3 185.5-312.7s154.8-217.4 240.8-329.5c85.98-112.1 175.2-226.2 264.5-342s176.8-233.7 259.6-351.8c83.42-119 162.7-238.8 231.7-357.8 64.68-103.4 119.5-204.5 165.2-304.9v-1409c-17.88-43.06-37.28-86.38-58.21-130-76.3-159-174.4-322.7-295.1-489.7s-272.9-345-450.1-519.6c-199.3-196.4-480.9-434.1-833.2-671.4s-802.2-483.7-1343-704.8c-270.5-110.6-548.8-208.9-828.5-292.5-279.7-83.57-562.4-151.9-841.2-203.1-160.8-29.51-317.4-54.01-469-74.35h-1912l0.7774 129.8c94.47 18.76 196.1 38.46 305.8 59.06 251 47.1 549.5 102.5 893.8 172.1 350.9 70.94 733.3 166.6 1123 294.4 293.4 96.26 584.3 216.7 865.6 356.9 281.3 140.1 545.3 295.4 786.9 458.3s456.6 329.3 644.4 495.1 346.4 330.2 481.5 489.6c180 212.5 318.5 418.2 416 615.8 97.52 197.6 157.9 388.1 184.5 572.7 26.67 184.7 19.79 365.1-18.93 541.9s-110.2 349.9-213.2 519.7c-102.9 169.8-232.9 335.4-378 494.3-145.1 159-296.1 311.8-434.8 461-138.7 149.3-251.2 297.5-329.5 447.2-78.28 149.7-120 301-139.2 448.2-19.21 147.2-15.19 289.9 12.12 426.9 3.475 17.43 7.357 34.72 11.61 51.88zm-1262-7035c22.55 6.948 45.07 13.95 67.55 21.01-20.15-6.98-40.27-13.99-60.37-21.01zm1615 0c207.3 128.4 383.8 244.2 513.2 327.6 210.7 166.9 416 346.6 611.8 528.8v-330.3c-92.15-79.8-187-159.8-282.6-237.5-126.8-103-250.9-197-381.2-288.6zm-1548 21.01c11.37 3.937 23.88 7.15 35.17 11.12-3.829-1.55-6.744-3.168-10.58-4.717-7.984-2.523-16.59-3.897-24.58-6.406zm35.17 11.12c501.6 203 928 414.9 1254 615.8 328.8 202.5 579.9 384 795.9 559.2 199.3 176.1 385.5 357.5 536.2 523.8 17.14 18.93 34.14 37.89 51 56.85v-56.16c-141.2-154.6-298.4-312.7-458.3-461.9-276.7-239.9-609.5-479.1-1068-748.3-229.1-134.6-504.3-270.7-816.9-396-88.68-35.55-200-59.99-294.5-93.26zm2637 6234c-17.2 41.45-32.85 81.78-46.61 120.9-24.8 70.8-43.2 137.5-54.6 199.8-11.4 62.31-15.41 119.9-11.91 172.7 3.5 52.76 14.2 100.7 34.2 142.1 20.99 43.71 46.92 82.82 78.91 116.6v-188.5c-10.06-37.26-15.32-77.91-15.61-121.9-0.331-49.85 5.231-103.6 15.61-160.6z"/><path transform="matrix(.1333 0 0 -.1333 0 716.5)" d="m5576 8431c-99.22-132.6-189.7-267.9-270-403.5-65.16-110.2-118.2-217.8-162.9-323.2-44.76-105.4-81.38-207.8-110.3-306.8-28.87-99.01-50.54-194.6-65.64-286.9-15.1-92.28-24.73-182.1-30.26-270.4-5.54-88.32-7.539-175.6-6.459-262.4 1.08-86.7 5.61-172.6 11.5-258.2 5.87-85.63 14.29-170.6 24.46-255.2 10.17-84.58 21.78-168.9 38.84-249 17.05-80.1 39.05-156.4 64.68-230.2 25.61-73.75 53.82-146.1 83.32-218 29.51-71.91 59.07-144 87.4-216.8 28.33-72.85 54.57-146.9 79.15-222.1 49.16-150.4 76.31-310 79.93-476.3 3.62-166.4-18.74-337.7-67.48-509.8-48.72-172-123.5-342.1-223.1-506.9-99.56-164.8-222.5-321.8-366.7-469.1-144.3-147.3-306.4-284.2-481.7-408.5-175-124.5-359.2-235.9-537.6-334.8-178.1-98.77-354.5-185.8-522-262.3-23.05-10.53-45.86-20.87-68.43-31.04l1.502 250.7c79.78 53.88 159.1 111.1 236.9 171.6 94.31 73.29 183.7 151.9 266.5 234.9 82.8 82.99 158 170 224.4 260.6 66.44 90.69 123.5 184.7 170.5 281.2 47 96.54 83.83 194.9 109.8 294.6 34.68 132.8 53.38 265.4 58.03 395.7 2.34 65.14 0.2168 129.2-4.783 192.5-5 63.3-12.39 126-21.33 188.5-8.95 62.51-18.68 125.4-28.42 189.4-9.75 63.97-18.87 129.6-26.58 197.6-7.7 68.07-13.35 139.4-16.07 215-2.71 75.61-4.999 153.3-8.879 229.7s-8.869 152.2-14.11 227.7c-5.23 75.49-10.01 151-13.35 227.7s-4.687 155.4-3.447 237c1.24 81.59 5.64 167 13.23 256.6 7.58 89.56 19.86 185 37.12 286.8 17.27 101.8 39.61 209.6 67.03 322.6 27.41 113 60.35 231.2 100 355.3 39.69 124.1 87.41 254.5 144.8 391.2 57.35 136.7 123 278.4 205.1 425.4 82.06 147 175.2 296.1 283.9 444.6 55.48 75.86 113.1 150.8 172.4 224.4zm-2437-5526 5.705 952.8c2.526-15.55 4.945-31.28 7.23-47.22 5.95-41.44 10.57-84.69 13.53-129.8 2.95-45.16 4.336-91.67 5.986-136.8s3.41-89 4.92-132.1c1.52-43.08 2.506-85.57 2.756-127.6 0.26-41.99-0.4563-83.67-2.986-125.2-5.05-83.15-16.51-166.4-36.08-249.6-0.349-1.486-0.7011-2.972-1.057-4.457zm1379 5526c-6.209-8.21-12.42-16.45-18.63-24.71-178.9-238-329.6-486.3-466.8-737.1-134.1-282.3-241.5-534.9-328.3-772.6-86.8-237.8-157-454.9-214.8-648.8-57.83-193.9-106.6-366.7-147.6-518.7s-74.75-284-102.2-398.1c-27.48-114.2-49.66-213.4-67.23-300-7.758-38.28-14.74-74.53-21.02-109l1.074 179.6c16.73 71.29 36.23 150.5 58.78 238.5 32.36 126.3 71.58 272.7 118.4 441.1 46.87 168.4 102.2 359.5 168.4 574 66.2 214.6 138.9 453 245.9 711.9 160.6 388.3 359.2 802.6 613.4 1180 42.12 62.5 85.24 123.9 129.3 184.2zm-62.5 0c-37.73-51.9-74.61-104.5-110.6-157.8-180.3-266.8-338.2-552.3-476.5-849-135.4-296.5-238.7-573.8-322.7-829.4-83.96-255.6-152.3-483.2-210-684.2-57.71-201-106.4-376.1-146.8-526.2-12.58-46.77-24.42-91.31-35.56-133.7l2.809 468.9c6.208 21.79 12.49 43.84 18.84 66.14 82.69 290.2 182.5 625.9 304.7 993.9s274.2 746.9 462.9 1139c99.4 174.8 206.6 347.2 320.2 512.3z"/><path transform="matrix(.1333 0 0 -.1333 0 716.5)" d="m3202 8431c-10.32-51.86-20.58-105.3-30.83-160.5l0.3691 61.78c6.229 33.48 12.45 66.38 18.68 98.75z"/><path transform="matrix(.1333 0 0 -.1333 0 716.5)" d="m3263 8431c-7.726-37.01-15.55-74.8-23.69-113.5-22.74-108.1-45.97-224.4-69.92-350.7l0.4453 74.34c18.36 92.91 36.77 181.7 55.32 266.6 9.69 44.28 19.58 84.65 29.52 123.3z"/><path transform="matrix(.1333 0 0 -.1333 0 716.5)" d="m10140 1396c6.981 5.189 13.95 10.38 20.91 15.58v-0.9258c-6.561-4.903-13.12-9.789-19.67-14.66z"/><path transform="matrix(.1333 0 0 -.1333 0 716.5)" d="m4554 8431c-71.34-95.9-139.5-194.4-203.6-294.9-157.6-246.7-286.9-491.9-397.2-733.8-110.1-241.9-200.5-472.8-273.6-685.5-73.08-212.8-132.3-404.5-182.2-577.2-49.89-172.7-91.7-326.3-126.4-461.5-34.73-135.2-63.44-254-86.88-358.6s-42.3-197-57.54-279.9c-15.23-82.93-27.65-158.7-38.06-229.5-10.41-70.83-19.23-137.9-25.22-199.1-5.99-61.16-9.28-117-10.23-168.7-0.95-51.72 0.2068-100.1 3.137-146.1 2.93-46 7.388-90.2 13.07-133.4 5.69-43.16 12.28-85.82 19.07-128.7 6.78-42.87 13.31-86.46 18.99-131.4 5.67-44.98 10.02-91.8 12.66-140.6 2.64-48.81 3.616-98.99 4.906-147.6 1.29-48.64 2.77-95.92 4-142.3 1.54-57.94 2.277-114.5 1.797-170.2s-3-110.8-8.27-165.6c-5.26-54.88-13.77-109.7-25.88-164.5-12.1-54.78-28.02-109.4-48.15-163.6-3.318-8.948-6.756-17.88-10.31-26.8l1.648 275.3c0.7502 5.689 1.467 11.38 2.15 17.07 4.95 41.25 7.687 82.47 9.137 123.9 1.46 41.38 1.907 83.12 1.607 125.3-0.31 42.23-1.163 85.01-2.283 128.7-1.11 43.65-2.156 88.52-3.176 134.6-0.6526 29.31-1.883 58.22-3.746 86.52l7.652 1278c11.13 56.66 24.16 118.4 39.29 186 21.96 98.05 49.43 211.4 83.18 342.5 33.76 131.2 74.38 281.8 122.8 453.2s105.4 363.8 174.6 579.1c69.22 215.3 150.5 451.8 265.4 710.9s244.9 515.7 393 764.2c89.44 150.1 187 298.4 292.5 444.3z"/><path transform="matrix(.1333 0 0 -.1333 0 716.5)" d="m9189 8431c-5.551-34.31-8.284-70.38-8.317-108.1-0.07-78.72 14.01-164.4 44.5-256.9 40.66-123.4 103.1-255.9 179.2-395 38.06-69.55 83.42-141.8 132-215.7s99.91-149.1 153.7-226.4c53.82-77.33 107.9-155.1 161.6-233.3 53.68-78.17 106.7-156.8 158.3-235.3 51.72-78.66 102.1-157.2 150.9-235.8v-2719c-66.46-95.82-140.1-193.8-221.9-294.2-143.9-176.6-318.1-360.3-519.4-539.7s-495.8-412-857.3-639.2c-361.2-227-831.6-458.3-1403-649.7-285.7-95.7-557.1-195-844.3-266.1-28.49-7.055-57-13.95-85.51-20.7h-3099l0.049 8.029c5.23 0.721 10.48 1.443 15.76 2.166 157.6 21.59 340.9 43.48 554.1 67.06 214.1 22.76 459.5 51.08 735.3 88.79 276.1 37.74 578.4 89.07 893.7 165.2 472.8 114.2 945.6 280.1 1409 482.6 464 202.6 868.5 438.2 1217 671 348.9 232.9 622.6 460.9 835.6 674.3 213.3 213.7 376.4 415.1 506.4 612.4 115.6 175.4 203.2 346 264.9 512.3 61.72 166.4 97.14 329 106.9 489.5 9.74 160.4-5.76 320.1-43.65 481.1-41.8 159.1-105.1 317.6-190.6 474.1-84.1 154-191.6 307.4-317.5 459.3s-259.8 302.5-393.5 451.6c-100.3 111.8-196.2 222-283.2 329.5-86.98 107.5-161.8 212-222.7 314.4-60.96 102.4-106.3 203-135.8 301.4s-46.28 194.1-52.89 286.1c-4.034 56-3.846 110.7 0.8731 163.9zm-3905-0.03 100.8 0.03c-53.57-68.78-104.6-138.4-152.7-208.5-125.8-183.3-231-366.6-318.9-547-58.8-120.6-106.7-236.6-146.1-348.1-39.41-111.5-69.31-217.7-92.24-319-22.92-101.2-40.03-198.6-52.37-292.7-12.33-94.11-20.35-185.3-24.6-274.2s-5.354-176-3.514-261.6c1.83-85.61 6.197-170.3 12.45-253.9 6.25-83.61 11.91-168.1 17.95-252.7 6.05-84.66 12.58-169.1 23.34-249.2 10.77-80.14 25.46-156.3 43.11-229.5s37.45-144.4 58.04-214.8c20.6-70.47 40.87-140.9 60.14-212.1 19.28-71.18 36.35-143.4 49.96-217.1 17.01-92.19 28.01-186.2 31.46-282.1 3.45-95.95-1.387-193.6-15.14-292.4s-36.34-197.6-67.71-295.9-71.51-195.5-120.4-291.1c-48.84-95.56-106.2-188.9-171.6-279.4-65.43-90.47-138.6-177.7-218.5-261.2-79.86-83.42-165.2-163.7-256.1-239.9-90.89-76.24-186-148.5-284.5-215.7-157.5-107.6-317.6-205-475.8-291.7-49.77-27.26-98.88-53.51-147.1-78.78m2044 6409c-7.301-9.294-14.56-18.61-21.77-27.93-155.8-201.4-289.2-405.9-399.9-607-109.8-200.8-196.2-393.6-264.6-577.2-45.59-122.4-81.1-237.8-109.7-348-28.61-110.1-51.54-215.3-69.28-315.2-17.73-99.93-30.81-195-39.65-285.6-8.84-90.59-13.64-177-15.19-260.2s-0.4452-164 3.135-242.7c3.57-78.76 9.291-156.1 16.38-232.7 7.11-76.83 13.28-154.5 18.57-233 5.29-78.45 9.167-158.2 15.22-234.9 6.07-76.74 15.43-149.2 27.31-218.5 11.87-69.27 25.6-136.1 40.26-201.5 14.67-65.36 29.61-129.8 43.69-194.4s26.63-129.8 36.64-196.1c12.5-82.83 20.31-166.9 22.19-252.5 1.86-85.57-2.982-172.5-15.16-260.1-12.19-87.79-31.76-175.6-58.8-262.9-27.04-87.28-61.67-173.7-104-258.7s-92.05-168.1-148.9-248.9c-56.85-80.76-120.3-158.8-189.9-234-69.55-75.21-144.7-147.5-224.5-216.4-79.82-68.98-163.5-134.5-250.1-195.7-117.5-83.02-236.7-159.8-354.9-229.8l2.793 466.4c0.278 0.3854 0.5563 0.7707 0.834 1.156 41.73 57.95 78.53 117.3 110.1 177.9 31.52 60.56 57.57 121.7 78.37 183.1 20.8 61.44 36.69 123.1 48.21 185 11.51 61.81 18.96 123.6 23.29 185.6 4.32 61.96 5.268 123.9 4.568 186.9-0.69 62.93-2.691 127.2-5.121 193.5-2.42 66.32-4.762 135.1-6.312 207.2-1.55 71.85-4.669 143.8-10.46 213-5.8 69.19-13.46 135.8-21.41 201.7-7.94 65.87-15.11 132.4-20 202.1-4.87 69.42-6.46 143.4-3.92 223.9 2.54 80.42 9.775 169.1 22.47 268.7 12.71 99.58 31.63 212.5 57.54 341.7 25.92 129.2 57.93 273.2 97.15 434.4s87.8 343.3 148.7 549.5 138.2 438.4 239.9 698.4c103 260.1 238.4 547.8 400.4 835.5 109.7 194.9 239.2 390.1 383.4 578.4l492.5-0.126"/><path transform="matrix(.1333 0 0 -.1333 0 716.5)" d="m9991 1396c14 10.22 27.87 20.38 41.59 30.47 42.66 31.26 85.48 63.25 128.3 95.69v-19.04c-46.5-35.42-93.89-71.12-142.2-107.1z"/><path transform="matrix(.1333 0 0 -.1333 0 716.5)" d="m3255 8431c-27.93-128.6-56.19-268.3-85.25-419.9l0.4336 72.59c21.26 112.5 42.04 218.1 62.57 317 2.107 10.14 4.214 20.22 6.324 30.26z"/><path transform="matrix(.1333 0 0 -.1333 0 716.5)" d="m3161 6555 0.2578 43.03c58.35 218 119.4 437.1 183.5 652.2 31.96 106.6 71.73 178.3 105.6 279.2-54.67-164.2-108.7-329.5-159.6-506.5-44.97-156.4-88.1-312.9-129.7-467.9zm652.4 1877c-27.82-56.8-55.76-115.3-83.82-175.6-27.82-59.75-50.75-129.3-77.07-191.9 47.38 115 89.62 261.3 137.3 367.5z"/><path transform="matrix(.1333 0 0 -.1333 0 716.5)" d="m3452 8431c-26.16-86.82-52.62-178-79.21-274.2-67.65-244.6-137.1-526-207.7-837.5l0.2265 37.79c35.41 158.5 70.46 309.3 105.2 450.9 57.43 232.9 113.2 439.6 167.4 622.9z"/><path transform="matrix(.1333 0 0 -.1333 0 716.5)" d="m3514 8431c-15.54-46.69-31.17-94.69-46.86-144.1-97.37-306.4-196.8-675.1-297.1-1097-1.707-7.186-3.412-14.38-5.115-21.58l0.1895 31.78c1.73 7.366 3.462 14.72 5.195 22.07 99.72 422.8 197.9 789.5 293.4 1093 12.43 39.51 24.81 78.12 37.14 115.9z"/><path transform="matrix(.1333 0 0 -.1333 0 716.5)" d="m3395 8431c-72.93-265.4-149.2-581-228.8-949.4l0.2129 35.45c66.88 309.9 131.1 583.5 192.4 818.1 8.504 32.52 17 64.46 25.52 95.84z"/><path transform="matrix(.1333 0 0 -.1333 0 716.5)" d="m3442 8431c-38.65-131.8-76.97-274.9-115.7-431.3-50.23-203-105.1-432.4-161.1-682.4l0.2168 36.19c57.89 259.9 115.1 497 170.9 708.3 34.99 132.4 69.35 255.3 102 369.2z"/><path transform="matrix(.1333 0 0 -.1333 0 716.5)" d="m6169 1396c57.71 12.39 115.6 25.53 173.7 39.51-53.73-13.72-107.4-26.89-161.1-39.51zm173.7 39.51c62.41 15.94 124.4 37.01 186.8 54.99-49.87-14.62-97.41-33.23-148.4-45.68-12.8-3.127-25.6-6.228-38.41-9.31zm578.9 169.9c45.56 14.74 90.68 30.06 135.3 46.17-43.52-15.2-87.49-30.22-131.9-45.06-1.115-0.3724-2.223-0.7383-3.338-1.109zm282.7 101c107.4 42.03 208.8 85.79 313.6 128.7-22.06-9.242-37.64-19.01-60.06-28.21-83.24-34.13-167.8-67.77-253.6-100.5zm313.6 128.7c252.7 105.9 483 214.5 688.1 323.3-127.4-68.07-239.4-137.5-385.3-202.8-92.85-41.91-203.4-79.82-302.8-120.5zm775.4 369.5c214.1 117.4 404.9 234.4 564 346.6 340.8 240.4 595 458.6 813.8 676.2 189.3 198.7 356.4 400.1 488.4 589.1 0.37 0.5291 0.738 1.059 1.107 1.588v-20.27c-33.45-46.77-68.5-94.05-105.2-141.8-151.3-197.1-337.3-402.5-571.4-619.2s-531.8-446.7-944.2-702.7c-70.45-43.73-166.2-86.02-246.6-129.5zm1089 6226c-12.33-42.83-19.54-89.23-21.44-139.1-2.52-65.53 6.022-137 25.5-213.8 19.49-76.78 49.3-158.3 88.46-244.2 39.16-85.85 86.78-175.7 138.9-268.4 26.05-46.35 54.82-93.89 84.84-142.2 30-48.32 60.96-97.15 92.52-146.4 31.56-49.3 63.46-98.99 95.55-149s64.32-100.4 96.41-151c32.12-50.66 63.72-101.4 94.72-152 27.7-45.19 55.25-90.48 82.7-136v-39.54c-13.34 22.55-26.74 45.04-40.2 67.48-30.7 51.18-61.5 102-92.8 152.9-31.23 50.84-63.04 101.6-95.06 152.2-32.03 50.51-64.02 100.7-95.76 150.4-31.73 49.77-63.2 99.17-94.2 148.1-30.99 48.96-61.12 97.36-90.06 145.1-28.93 47.69-56.48 94.48-81.17 140-49.38 91.14-94.03 179.4-130.1 263.5-36.02 84.13-62.64 163.9-79.73 239.1-17.1 75.19-22.93 144.9-18 208.8 3.116 40.37 9.663 78.43 19.73 114z"/><path transform="matrix(.1333 0 0 -.1333 0 716.5)" d="m3656 8431c-47.05-115.5-94.22-239.1-140.9-371.4-106.7-302.2-209.1-649.6-307.1-1028-15.48-59.75-30.75-119.7-45.83-179.8l0.7988 133.6c59.25 241 119.6 473.3 181.4 689.9 81.16 284.2 164.5 536.3 245.7 755.6z"/><path transform="matrix(.1333 0 0 -.1333 0 716.5)" d="m3557 8431c-56.06-159.2-114-335.8-171.1-529.4-75.16-254.7-149.3-538.6-222.4-840.7l0.1464 24.21c60.2 254.9 122.1 498.6 186.4 722.7 65.95 229.9 131.1 436.2 194.6 623.1z"/></g></g></svg>
